SplineFontDB: 3.0
FontName: Vazir-Thin
FullName: Vazir Thin
FamilyName: Vazir Thin
Weight: Thin
Copyright: Copyright (c) 2003 by Bitstream, Inc. All Rights Reserved.\nDejaVu changes are in public domain\nChanges by Saber Rastikerdar are in public domain.\nNon-Arabic(Latin) glyphs and data in extended version are imported from Roboto font under the Apache License, Version 2.0.
Version: 21.2.0
ItalicAngle: 0
UnderlinePosition: -500
UnderlineWidth: 100
Ascent: 1638
Descent: 410
InvalidEm: 0
LayerCount: 2
Layer: 0 0 "Back" 1
Layer: 1 0 "Fore" 0
PreferredKerning: 4
XUID: [1021 502 1027637223 4487007]
UniqueID: 4140067
UseUniqueID: 1
FSType: 0
OS2Version: 1
OS2_WeightWidthSlopeOnly: 0
OS2_UseTypoMetrics: 1
CreationTime: 1431850356
ModificationTime: 1574845938
PfmFamily: 33
TTFWeight: 100
TTFWidth: 5
LineGap: 0
VLineGap: 0
Panose: 2 11 6 3 3 8 4 2 2 4
OS2TypoAscent: 2100
OS2TypoAOffset: 0
OS2TypoDescent: -1100
OS2TypoDOffset: 0
OS2TypoLinegap: 0
OS2WinAscent: 2100
OS2WinAOffset: 0
OS2WinDescent: 1100
OS2WinDOffset: 0
HheadAscent: 2100
HheadAOffset: 0
HheadDescent: -1100
HheadDOffset: 0
OS2SubXSize: 1331
OS2SubYSize: 1433
OS2SubXOff: 0
OS2SubYOff: 286
OS2SupXSize: 1331
OS2SupYSize: 1433
OS2SupXOff: 0
OS2SupYOff: 983
OS2StrikeYSize: 102
OS2StrikeYPos: 530
OS2CapHeight: 1638
OS2XHeight: 1082
OS2Vendor: '    '
OS2CodePages: 00000041.20080000
OS2UnicodeRanges: 80002003.80000000.00000008.00000000
Lookup: 1 9 0 "Single Substitution 1" { "Single Substitution 1 subtable"  } []
Lookup: 1 9 0 "'fina' Terminal Forms in Arabic lookup 9" { "'fina' Terminal Forms in Arabic lookup 9 subtable"  } ['fina' ('DFLT' <'dflt' > 'arab' <'FAR ' 'KUR ' 'URD ' 'dflt' > ) ]
Lookup: 1 9 0 "'medi' Medial Forms in Arabic lookup 11" { "'medi' Medial Forms in Arabic lookup 11 subtable"  } ['medi' ('DFLT' <'dflt' > 'arab' <'FAR ' 'KUR ' 'URD ' 'dflt' > ) ]

StartChar: exclam
Encoding: 33 33 1
GlifName: exclam
Width: 632
VWidth: 2732
GlyphClass: 2
Flags: HW
LayerCount: 2
Fore
SplineSet
213 104 m 0
 213 160.577148438 259.939453125 208 316 208 c 0
 372.061523438 208 419 160.580078125 419 104 c 0
 419 47.63671875 372.361328125 1 316 1 c 0
 258.073242188 1 213 44.5576171875 213 104 c 0
251.837890625 1316 m 5
 384.1953125 1316 l 1
 370.784179688 432 l 1
 266.185546875 432 l 1
 251.837890625 1316 l 5
EndSplineSet
EndChar

StartChar: period
Encoding: 46 46 2
GlifName: period
Width: 632
VWidth: 2732
GlyphClass: 2
Flags: HW
LayerCount: 2
Fore
SplineSet
213 104 m 0
 213 160.577148438 259.939453125 208 316 208 c 0
 372.061523438 208 419 160.580078125 419 104 c 0
 419 47.63671875 372.361328125 1 316 1 c 0
 258.073242188 1 213 44.5576171875 213 104 c 0
EndSplineSet
EndChar

StartChar: colon
Encoding: 58 58 3
GlifName: colon
Width: 632
VWidth: 2732
GlyphClass: 2
Flags: HW
LayerCount: 2
Fore
SplineSet
213 724 m 0
 213 780.577148438 259.939453125 828 316 828 c 0
 372.061523438 828 419 780.580078125 419 724 c 0
 419 667.63671875 372.361328125 621 316 621 c 0
 258.073242188 621 213 664.557617188 213 724 c 0
213 104 m 0
 213 160.577148438 259.939453125 208 316 208 c 0
 372.061523438 208 419 160.580078125 419 104 c 0
 419 47.63671875 372.361328125 1 316 1 c 0
 258.073242188 1 213 44.5576171875 213 104 c 0
EndSplineSet
EndChar

StartChar: uni060C
Encoding: 1548 1548 5
GlifName: afii57388
Width: 669
VWidth: 2740
GlyphClass: 2
Flags: HW
LayerCount: 2
Fore
SplineSet
457.163085938 549.176757812 m 1
 369.719726562 464.999023438 311 380.467773438 311 255 c 2
 311 225 l 1
 341 225 l 2
 427.375976562 225 446 196.67578125 446 121 c 0
 446 46.9638671875 412.2734375 9 341 9 c 0
 247.216796875 9 213 57.2685546875 213 153 c 0
 213 326.872070312 298.27734375 464.166015625 428.990234375 571.639648438 c 1
 457.163085938 549.176757812 l 1
EndSplineSet
EndChar

StartChar: uni0615
Encoding: 1557 1557 6
GlifName: uni0615
Width: -29
VWidth: 2712
GlyphClass: 4
Flags: HW
AnchorPoint: "Anchor-10" 658.199 1622.46 mark 0
AnchorPoint: "Anchor-9" 658.199 1622.46 mark 0
AnchorPoint: "Anchor-1" 672.366 2445.86 basemark 0
AnchorPoint: "Anchor-1" 658.199 1622.46 mark 0
LayerCount: 2
Fore
SplineSet
922.5 1918 m 0
 922.5 1972.54218546 892.404707701 2002.5 837 2002.5 c 0
 759.706067151 2002.5 656.515248558 1927.68538571 530.922115164 1791.07600851 c 2
 519.360241841 1778.5 l 1
 536.443359375 1778.5 l 1
 678 1778.5 l 2
 787.107436735 1778.5 922.5 1812.62049131 922.5 1918 c 0
542.620193711 1881.72981659 m 2
 650.977495014 2004.99038663 751.932604399 2068.5 841 2068.5 c 0
 936.507265731 2068.5 981.5 2023.58060437 981.5 1927 c 0
 981.5 1791.42809603 881.493833021 1721.5 668 1721.5 c 2
 364.5 1721.5 l 1
 364.5 1778.5 l 1
 465 1778.5 l 1
 472.5 1778.5 l 1
 472.5 1786 l 1
 472.5 2310.37567432 l 1
 530.478719277 2309.6232882 l 1
 529.487325294 1886.69922164 l 1
 529.440532066 1866.73744793 l 1
 542.620193711 1881.72981659 l 2
EndSplineSet
EndChar

StartChar: uni061B
Encoding: 1563 1563 7
GlifName: uni061B_
Width: 669
VWidth: 2740
GlyphClass: 2
Flags: HW
LayerCount: 2
Fore
SplineSet
241 104 m 0
 241 160.577148438 287.939453125 208 344 208 c 0
 400.061523438 208 447 160.580078125 447 104 c 0
 447 47.63671875 400.361328125 1 344 1 c 0
 286.073242188 1 241 44.5576171875 241 104 c 0
457.10546875 973.223632812 m 1
 369.5234375 889.23046875 311 804.653320312 311 679 c 2
 311 649 l 1
 341 649 l 2
 427.017578125 649 446 620.215820312 446 545 c 0
 446 470.963867188 412.2734375 433 341 433 c 0
 247.216796875 433 213 481.268554688 213 577 c 0
 213 750.872070312 298.27734375 888.166015625 428.990234375 995.639648438 c 1
 457.10546875 973.223632812 l 1
EndSplineSet
EndChar

StartChar: uni061F
Encoding: 1567 1567 8
GlifName: uni061F_
Width: 924
VWidth: 2732
GlyphClass: 2
Flags: HW
LayerCount: 2
Fore
SplineSet
422 104 m 0
 422 160.577148438 468.939453125 208 525 208 c 0
 581.061523438 208 628 160.580078125 628 104 c 0
 628 47.63671875 581.361328125 1 525 1 c 0
 467.073242188 1 422 44.5576171875 422 104 c 0
129 1001 m 0
 129 1196.53222656 287.01171875 1326 469 1326 c 0
 694.793945312 1326 786.662109375 1220.2265625 795.387695312 991 c 1
 698.96875 991 l 1
 690.576171875 1121.37402344 624.047851562 1206 480 1206 c 0
 347.627929688 1206 250 1127.8125 250 992 c 0
 250 780.428710938 565.2734375 750.861328125 586.778320312 432 c 5
 461.958007812 432 l 1
 439.205078125 742.870117188 129 728 129 1001 c 0
EndSplineSet
EndChar

StartChar: uni0621
Encoding: 1569 1569 9
GlifName: uni0621
Width: 830
VWidth: 2920
GlyphClass: 2
Flags: HW
AnchorPoint: "Anchor-7" 445.326 -35.6465 basechar 0
AnchorPoint: "Anchor-10" 441.848 1069.06 basechar 0
LayerCount: 2
Fore
SplineSet
460.694335938 303.756835938 m 2
 533.021484375 320.313476562 608.756835938 337.125976562 681.249023438 353.587890625 c 1
 697.737304688 246.413085938 l 1
 538.029296875 220.715820312 349.657226562 147.888671875 128 30.259765625 c 1
 128 137.1328125 l 1
 192.029296875 180.123046875 248.750976562 209.216796875 304.434570312 229.873046875 c 2
 368.337890625 253.579101562 l 1
 307.694335938 284.692382812 l 2
 198.409179688 340.759765625 148 408.623046875 148 504 c 0
 148 692.258789062 279.862304688 808 453 808 c 0
 549.600585938 808 620.59765625 784.120117188 672.270507812 740.958984375 c 1
 638.693359375 659.15234375 l 1
 587.400390625 687.184570312 530.501953125 701 466 701 c 0
 348.348632812 701 250 629.327148438 250 505 c 0
 250 420.927734375 326.721679688 358.083007812 441.549804688 305.705078125 c 2
 450.791992188 301.489257812 l 1
 460.694335938 303.756835938 l 2
EndSplineSet
EndChar

StartChar: uni0627
Encoding: 1575 1575 15
GlifName: uni0627
Width: 465
VWidth: 2920
GlyphClass: 2
Flags: HW
AnchorPoint: "Anchor-10" 224.871 1485.46 basechar 0
AnchorPoint: "Anchor-7" 228.587 -268.365 basechar 0
LayerCount: 2
Fore
SplineSet
178 1326 m 1
 287 1326 l 1
 287 1 l 1
 178 1 l 1
 178 1326 l 1
EndSplineSet
Substitution2: "'fina' Terminal Forms in Arabic lookup 9 subtable" uniFE8E
EndChar

StartChar: uni062D
Encoding: 1581 1581 21
GlifName: uni062D_
Width: 1347
VWidth: 2920
GlyphClass: 2
Flags: HW
AnchorPoint: "Anchor-7" 690.833 -860.619 basechar 0
AnchorPoint: "Anchor-10" 601.478 1146.07 basechar 0
LayerCount: 2
Fore
SplineSet
847.141601562 547.854492188 m 2
 822.075195312 557.880859375 812.569335938 561.680664062 756.26953125 584.802734375 c 0
 621.094726562 638.873046875 536.266601562 676 477 676 c 0
 387.983398438 676 305.051757812 619.294921875 252.212890625 550.28125 c 2
 240.2890625 534.823242188 l 1
 140.002929688 584.634765625 l 1
 220.159179688 713.901367188 340.44921875 794 478 794 c 0
 552.979492188 794 650.915039062 757.521484375 767.897460938 701.012695312 c 0
 958.577148438 607.975585938 1083.88867188 562.2265625 1195.80566406 550.453125 c 1
 1187.03027344 435.692382812 l 1
 664.407226562 387.203125 235 160.532226562 235 -165 c 0
 235 -435.467773438 437.3046875 -566 798 -566 c 0
 934.013671875 -566 1066.953125 -536.872070312 1191.15917969 -483.688476562 c 1
 1213.81542969 -593.733398438 l 1
 1088.32421875 -649.471679688 949.0234375 -677 784 -677 c 0
 385.791992188 -677 129 -519.504882812 129 -181 c 0
 129 122.186523438 367.885742188 384.3671875 842.559570312 490.725585938 c 2
 937.0390625 511.895507812 l 1
 847.141601562 547.854492188 l 2
EndSplineSet
Substitution2: "'fina' Terminal Forms in Arabic lookup 9 subtable" uniFEA2
Substitution2: "'medi' Medial Forms in Arabic lookup 11 subtable" uniFEA4
Substitution2: "'init' Initial Forms in Arabic lookup 13 subtable" uniFEA3
EndChar

StartChar: uni062F
Encoding: 1583 1583 23
GlifName: uni062F_
Width: 963
VWidth: 2920
GlyphClass: 2
Flags: HW
AnchorPoint: "Anchor-10" 371.137 1139.03 basechar 0
AnchorPoint: "Anchor-7" 432.24 -271.316 basechar 0
LayerCount: 2
Fore
SplineSet
128 140.673828125 m 1
 198.9921875 127.7578125 260.436523438 121 317 121 c 0
 562.049804688 121 719 181.044921875 719 334 c 0
 719 477.692382812 572.969726562 628.469726562 316.866210938 793.887695312 c 1
 382.107421875 892.416015625 l 1
 691.561523438 702.51953125 835 516.618164062 835 337 c 0
 835 117.806640625 682.59765625 2 330 2 c 0
 257.711914062 2 188.197265625 9.173828125 128 20.552734375 c 1
 128 140.673828125 l 1
EndSplineSet
Substitution2: "'fina' Terminal Forms in Arabic lookup 9 subtable" uniFEAA
EndChar

StartChar: uni0631
Encoding: 1585 1585 25
GlifName: uni0631
Width: 780
VWidth: 2112
GlyphClass: 2
Flags: HW
AnchorPoint: "Anchor-10" 493.256 818.2 basechar 0
AnchorPoint: "Anchor-7" 322.969 -669.998 basechar 0
LayerCount: 2
Fore
SplineSet
582.6015625 458.90625 m 1
 628.518554688 335.752929688 652 206.8515625 652 105 c 0
 652 -234.947265625 462.62109375 -441.943359375 68.8232421875 -523.674804688 c 1
 30.8896484375 -426.311523438 l 1
 364.354492188 -353.938476562 542.943359375 -177.817382812 545 99.888671875 c 0
 545 188.719726562 521.586914062 308.057617188 477.579101562 421.305664062 c 1
 582.6015625 458.90625 l 1
EndSplineSet
PairPos2: "'kern' Horizontal Kerning lookup 15-1" uniFEE7 dx=-178 dy=0 dh=-178 dv=0 dx=0 dy=0 dh=0 dv=0
PairPos2: "'kern' Horizontal Kerning lookup 15-2" uniFE8B dx=-178 dy=0 dh=-178 dv=0 dx=0 dy=0 dh=0 dv=0
PairPos2: "'kern' Horizontal Kerning lookup 15-2" uni0640 dx=-178 dy=0 dh=-178 dv=0 dx=0 dy=0 dh=0 dv=0
PairPos2: "'kern' Horizontal Kerning lookup 15-2" uni067E dx=-178 dy=0 dh=-178 dv=0 dx=0 dy=0 dh=0 dv=0
PairPos2: "'kern' Horizontal Kerning lookup 15-2" uni06AF dx=-226 dy=0 dh=-226 dv=0 dx=0 dy=0 dh=0 dv=0
PairPos2: "'kern' Horizontal Kerning lookup 15-2" uniFB92 dx=-226 dy=0 dh=-226 dv=0 dx=0 dy=0 dh=0 dv=0
PairPos2: "'kern' Horizontal Kerning lookup 15-2" uniFB94 dx=-226 dy=0 dh=-226 dv=0 dx=0 dy=0 dh=0 dv=0
PairPos2: "'kern' Horizontal Kerning lookup 15-2" uni0621 dx=-178 dy=0 dh=-178 dv=0 dx=0 dy=0 dh=0 dv=0
PairPos2: "'kern' Horizontal Kerning lookup 15-2" uni0622 dx=-143 dy=0 dh=-143 dv=0 dx=0 dy=0 dh=0 dv=0
PairPos2: "'kern' Horizontal Kerning lookup 15-2" uni0623 dx=-143 dy=0 dh=-143 dv=0 dx=0 dy=0 dh=0 dv=0
PairPos2: "'kern' Horizontal Kerning lookup 15-2" uni0627 dx=-143 dy=0 dh=-143 dv=0 dx=0 dy=0 dh=0 dv=0
PairPos2: "'kern' Horizontal Kerning lookup 15-2" uni0628 dx=-178 dy=0 dh=-178 dv=0 dx=0 dy=0 dh=0 dv=0
PairPos2: "'kern' Horizontal Kerning lookup 15-2" uni0629 dx=-178 dy=0 dh=-178 dv=0 dx=0 dy=0 dh=0 dv=0
PairPos2: "'kern' Horizontal Kerning lookup 15-2" uni062A dx=-178 dy=0 dh=-178 dv=0 dx=0 dy=0 dh=0 dv=0
PairPos2: "'kern' Horizontal Kerning lookup 15-2" uniFE97 dx=-178 dy=0 dh=-178 dv=0 dx=0 dy=0 dh=0 dv=0
PairPos2: "'kern' Horizontal Kerning lookup 15-2" uni062B dx=-178 dy=0 dh=-178 dv=0 dx=0 dy=0 dh=0 dv=0
PairPos2: "'kern' Horizontal Kerning lookup 15-2" uniFE9B dx=-178 dy=0 dh=-178 dv=0 dx=0 dy=0 dh=0 dv=0
PairPos2: "'kern' Horizontal Kerning lookup 15-2" uniFE9F dx=-178 dy=0 dh=-178 dv=0 dx=0 dy=0 dh=0 dv=0
PairPos2: "'kern' Horizontal Kerning lookup 15-2" uniFEA3 dx=-178 dy=0 dh=-178 dv=0 dx=0 dy=0 dh=0 dv=0
PairPos2: "'kern' Horizontal Kerning lookup 15-2" uniFEA7 dx=-178 dy=0 dh=-178 dv=0 dx=0 dy=0 dh=0 dv=0
PairPos2: "'kern' Horizontal Kerning lookup 15-2" uni062F dx=-178 dy=0 dh=-178 dv=0 dx=0 dy=0 dh=0 dv=0
PairPos2: "'kern' Horizontal Kerning lookup 15-2" uni0630 dx=-178 dy=0 dh=-178 dv=0 dx=0 dy=0 dh=0 dv=0
PairPos2: "'kern' Horizontal Kerning lookup 15-2" uni0633 dx=-178 dy=0 dh=-178 dv=0 dx=0 dy=0 dh=0 dv=0
PairPos2: "'kern' Horizontal Kerning lookup 15-2" uniFEB3 dx=-178 dy=0 dh=-178 dv=0 dx=0 dy=0 dh=0 dv=0
PairPos2: "'kern' Horizontal Kerning lookup 15-2" uni0634 dx=-178 dy=0 dh=-178 dv=0 dx=0 dy=0 dh=0 dv=0
PairPos2: "'kern' Horizontal Kerning lookup 15-2" uniFEB7 dx=-178 dy=0 dh=-178 dv=0 dx=0 dy=0 dh=0 dv=0
PairPos2: "'kern' Horizontal Kerning lookup 15-2" uni0635 dx=-178 dy=0 dh=-178 dv=0 dx=0 dy=0 dh=0 dv=0
PairPos2: "'kern' Horizontal Kerning lookup 15-2" uniFEBB dx=-178 dy=0 dh=-178 dv=0 dx=0 dy=0 dh=0 dv=0
PairPos2: "'kern' Horizontal Kerning lookup 15-2" uni0636 dx=-178 dy=0 dh=-178 dv=0 dx=0 dy=0 dh=0 dv=0
PairPos2: "'kern' Horizontal Kerning lookup 15-2" uniFEBF dx=-178 dy=0 dh=-178 dv=0 dx=0 dy=0 dh=0 dv=0
PairPos2: "'kern' Horizontal Kerning lookup 15-2" uni0637 dx=-178 dy=0 dh=-178 dv=0 dx=0 dy=0 dh=0 dv=0
PairPos2: "'kern' Horizontal Kerning lookup 15-2" uniFEC3 dx=-178 dy=0 dh=-178 dv=0 dx=0 dy=0 dh=0 dv=0
PairPos2: "'kern' Horizontal Kerning lookup 15-2" uni0638 dx=-178 dy=0 dh=-178 dv=0 dx=0 dy=0 dh=0 dv=0
PairPos2: "'kern' Horizontal Kerning lookup 15-2" uniFEC7 dx=-178 dy=0 dh=-178 dv=0 dx=0 dy=0 dh=0 dv=0
PairPos2: "'kern' Horizontal Kerning lookup 15-2" uniFECB dx=-178 dy=0 dh=-178 dv=0 dx=0 dy=0 dh=0 dv=0
PairPos2: "'kern' Horizontal Kerning lookup 15-2" uniFECF dx=-178 dy=0 dh=-178 dv=0 dx=0 dy=0 dh=0 dv=0
PairPos2: "'kern' Horizontal Kerning lookup 15-2" uni0641 dx=-178 dy=0 dh=-178 dv=0 dx=0 dy=0 dh=0 dv=0
PairPos2: "'kern' Horizontal Kerning lookup 15-2" uniFED3 dx=-178 dy=0 dh=-178 dv=0 dx=0 dy=0 dh=0 dv=0
PairPos2: "'kern' Horizontal Kerning lookup 15-2" uni0642 dx=-60 dy=0 dh=-60 dv=0 dx=0 dy=0 dh=0 dv=0
PairPos2: "'kern' Horizontal Kerning lookup 15-2" uniFED7 dx=-178 dy=0 dh=-178 dv=0 dx=0 dy=0 dh=0 dv=0
PairPos2: "'kern' Horizontal Kerning lookup 15-2" uni0643 dx=-143 dy=0 dh=-143 dv=0 dx=0 dy=0 dh=0 dv=0
PairPos2: "'kern' Horizontal Kerning lookup 15-2" uniFEDB dx=-226 dy=0 dh=-226 dv=0 dx=0 dy=0 dh=0 dv=0
PairPos2: "'kern' Horizontal Kerning lookup 15-2" uni0644 dx=-60 dy=0 dh=-60 dv=0 dx=0 dy=0 dh=0 dv=0
PairPos2: "'kern' Horizontal Kerning lookup 15-2" uniFEDF dx=-143 dy=0 dh=-143 dv=0 dx=0 dy=0 dh=0 dv=0
PairPos2: "'kern' Horizontal Kerning lookup 15-2" uniFEFB dx=-143 dy=0 dh=-143 dv=0 dx=0 dy=0 dh=0 dv=0
PairPos2: "'kern' Horizontal Kerning lookup 15-2" uni0645 dx=-178 dy=0 dh=-178 dv=0 dx=0 dy=0 dh=0 dv=0
PairPos2: "'kern' Horizontal Kerning lookup 15-2" uniFEE3 dx=-178 dy=0 dh=-178 dv=0 dx=0 dy=0 dh=0 dv=0
PairPos2: "'kern' Horizontal Kerning lookup 15-2" uni0646 dx=-60 dy=0 dh=-60 dv=0 dx=0 dy=0 dh=0 dv=0
PairPos2: "'kern' Horizontal Kerning lookup 15-2" uni0647 dx=-178 dy=0 dh=-178 dv=0 dx=0 dy=0 dh=0 dv=0
PairPos2: "'kern' Horizontal Kerning lookup 15-2" uniFEEB dx=-178 dy=0 dh=-178 dv=0 dx=0 dy=0 dh=0 dv=0
PairPos2: "'kern' Horizontal Kerning lookup 15-2" uni0649 dx=-60 dy=0 dh=-60 dv=0 dx=0 dy=0 dh=0 dv=0
PairPos2: "'kern' Horizontal Kerning lookup 15-2" uni0626 dx=-60 dy=0 dh=-60 dv=0 dx=0 dy=0 dh=0 dv=0
PairPos2: "'kern' Horizontal Kerning lookup 15-2" uni064A dx=-60 dy=0 dh=-60 dv=0 dx=0 dy=0 dh=0 dv=0
PairPos2: "'kern' Horizontal Kerning lookup 15-2" uni06A9 dx=-226 dy=0 dh=-226 dv=0 dx=0 dy=0 dh=0 dv=0
PairPos2: "'kern' Horizontal Kerning lookup 15-2" uniFB8E dx=-226 dy=0 dh=-226 dv=0 dx=0 dy=0 dh=0 dv=0
PairPos2: "'kern' Horizontal Kerning lookup 15-2" uniFB90 dx=-226 dy=0 dh=-226 dv=0 dx=0 dy=0 dh=0 dv=0
PairPos2: "'kern' Horizontal Kerning lookup 15-2" uniFBFE dx=30 dy=0 dh=30 dv=0 dx=0 dy=0 dh=0 dv=0
PairPos2: "'kern' Horizontal Kerning lookup 15-2" uni0631 dx=-30 dy=0 dh=-30 dv=0 dx=0 dy=0 dh=0 dv=0
PairPos2: "'kern' Horizontal Kerning lookup 15-2" uni0632 dx=-30 dy=0 dh=-30 dv=0 dx=0 dy=0 dh=0 dv=0
PairPos2: "'kern' Horizontal Kerning lookup 15-2" uni0624 dx=-30 dy=0 dh=-30 dv=0 dx=0 dy=0 dh=0 dv=0
PairPos2: "'kern' Horizontal Kerning lookup 15-2" uni0648 dx=-30 dy=0 dh=-30 dv=0 dx=0 dy=0 dh=0 dv=0
PairPos2: "'kern' Horizontal Kerning lookup 15-2" uni0698 dx=-40 dy=0 dh=-40 dv=0 dx=0 dy=0 dh=0 dv=0
PairPos2: "'kern' Horizontal Kerning lookup 15-5" uni06C0 dx=-178 dy=0 dh=-178 dv=0 dx=0 dy=0 dh=0 dv=0
Substitution2: "'fina' Terminal Forms in Arabic lookup 9 subtable" uniFEAE
EndChar

StartChar: uni0633
Encoding: 1587 1587 27
GlifName: uni0633
Width: 2456
GlyphClass: 2
Flags: HW
AnchorPoint: "Anchor-10" 1770.53 837.1 basechar 0
AnchorPoint: "Anchor-7" 710.902 -746.086 basechar 0
LayerCount: 2
Fore
SplineSet
1531 0 m 0
 1456 0 1404 18 1361 52 c 2
 1313 89 l 1
 1312 28 l 2
 1309 -156 1256 -290 1154 -381 c 0
 1051 -473 908 -520 721 -520 c 0
 318 -520 128 -342 128 26 c 0
 128 153 154 284 205 416 c 1
 305 375 l 1
 261 252 240 139 240 31 c 0
 240 -258 411 -407 728 -407 c 0
 1041 -407 1206 -242 1207 70 c 0
 1207 186 1180 304 1128 421 c 1
 1237 459 l 1
 1286 305 l 2
 1324 187 1405 121 1533 120 c 0
 1683 120 1748 214 1748 359 c 0
 1748 389 1745 440 1740 511 c 1
 1845 523 l 1
 1859 329 l 2
 1866 220 1922 120 2047 120 c 0
 2163 120 2216 221 2216 372 c 0
 2216 440 2203 521 2179 615 c 1
 2290 644 l 1
 2316 554 2328 469 2328 387 c 0
 2328 162 2251 1 2048 0 c 0
 1943 0 1875 39 1833 124 c 2
 1811 169 l 1
 1782 129 l 2
 1718 41 1637 0 1531 0 c 0
EndSplineSet
Substitution2: "'fina' Terminal Forms in Arabic lookup 9 subtable" uniFEB2
Substitution2: "'medi' Medial Forms in Arabic lookup 11 subtable" uniFEB4
Substitution2: "'init' Initial Forms in Arabic lookup 13 subtable" uniFEB3
EndChar

StartChar: uni0635
Encoding: 1589 1589 29
GlifName: uni0635
Width: 2575
VWidth: 2920
GlyphClass: 2
Flags: HW
AnchorPoint: "Anchor-7" 710.902 -746.086 basechar 0
AnchorPoint: "Anchor-10" 2052.53 1098.1 basechar 0
LayerCount: 2
Fore
SplineSet
1753.1015625 121 m 2
 2109.99902344 121 2329 194.146484375 2329 383 c 0
 2329 507.88671875 2236.00390625 605 2104 605 c 0
 1930.63085938 605 1758.19042969 443.884765625 1579.76171875 166.217773438 c 2
 1549.82226562 119.626953125 l 1
 1605.203125 120.000976562 l 1
 1753.1015625 121 l 2
1207 69.94921875 m 0
 1207 187.8671875 1179.44335938 305.321289062 1128.15039062 421.405273438 c 1
 1236.82714844 458.702148438 l 1
 1286.47363281 304.712890625 l 2
 1314.62011719 218.26171875 1351.59472656 156.635742188 1415.53515625 149.201171875 c 2
 1434.95117188 146.943359375 l 1
 1444.859375 163.791992188 l 2
 1670.90917969 548.17578125 1887.27148438 727 2098 727 c 0
 2301.57128906 727 2447 581.060546875 2447 392.053710938 c 0
 2446.09277344 137.208984375 2234.98144531 0 1757 0 c 2
 1706 0 l 2
 1539.17578125 0 1425.18457031 20.3115234375 1354.99316406 54.0400390625 c 2
 1312.61132812 74.4052734375 l 1
 1312.00292969 27.388671875 l 2
 1307.22265625 -341.633789062 1083.84765625 -520 721 -520 c 0
 317.294921875 -520 128 -342.08984375 128 26 c 0
 128 152.734375 153.965820312 284.143554688 204.693359375 415.83203125 c 1
 304.858398438 375.119140625 l 1
 262.118164062 254.66796875 240 142.059570312 240 31 c 0
 240 -257.825195312 411.58203125 -407 728 -407 c 0
 1039.04296875 -407 1205.95214844 -242.264648438 1207 69.94921875 c 0
EndSplineSet
Substitution2: "'fina' Terminal Forms in Arabic lookup 9 subtable" uniFEBA
Substitution2: "'medi' Medial Forms in Arabic lookup 11 subtable" uniFEBC
Substitution2: "'init' Initial Forms in Arabic lookup 13 subtable" uniFEBB
EndChar

StartChar: uni0637
Encoding: 1591 1591 31
GlifName: uni0637
Width: 1471
VWidth: 2920
GlyphClass: 2
Flags: HW
AnchorPoint: "Anchor-10" 476.36 1488.58 basechar 0
AnchorPoint: "Anchor-7" 636.602 -268.453 basechar 0
LayerCount: 2
Fore
SplineSet
649.1015625 122 m 2
 1005.99902344 122 1225 195.146484375 1225 384 c 0
 1225 508.88671875 1132.00390625 606 1000 606 c 0
 826.630859375 606 654.190429688 444.884765625 475.76171875 167.217773438 c 2
 445.822265625 120.626953125 l 1
 501.203125 121.000976562 l 1
 649.1015625 122 l 2
345.549804688 134.27734375 m 2
 369.356445312 172.961914062 394.291992188 211.865234375 418.364257812 249.98046875 c 2
 423 257.319335938 l 1
 423 266 l 1
 423 1326 l 1
 532 1326 l 1
 532 506 l 1
 532 421.37890625 l 1
 585.30078125 487.103515625 l 2
 715.37890625 647.500976562 848.321289062 727 991 727 c 0
 1203.03222656 727 1343 586.200195312 1343 392.106445312 c 0
 1341.18554688 137.240234375 1129.91308594 0 653 0 c 2
 128 0 l 1
 128 120 l 1
 320 120 l 1
 336.763671875 120 l 1
 345.549804688 134.27734375 l 2
EndSplineSet
Substitution2: "'fina' Terminal Forms in Arabic lookup 9 subtable" uniFEC2
Substitution2: "'medi' Medial Forms in Arabic lookup 11 subtable" uniFEC4
Substitution2: "'init' Initial Forms in Arabic lookup 13 subtable" uniFEC3
EndChar

StartChar: uni0639
Encoding: 1593 1593 33
GlifName: uni0639
Width: 1306
VWidth: 2920
GlyphClass: 2
Flags: HW
AnchorPoint: "Anchor-7" 670.833 -860.619 basechar 0
AnchorPoint: "Anchor-10" 694.478 1334.07 basechar 0
LayerCount: 2
Fore
SplineSet
954.200195312 795.301757812 m 1
 864.059570312 844.548828125 786.107421875 871 715 871 c 0
 585.602539062 871 465 783.700195312 465 640 c 0
 465 531.586914062 523.729492188 473.52734375 581.453125 400.411132812 c 2
 592.560546875 386.341796875 l 1
 610.213867188 389.456054688 l 2
 728.0546875 410.251953125 829.560546875 421 912 421 c 0
 961.842773438 421 1012.41015625 418.200195312 1059.11035156 414.087890625 c 1
 1043.90234375 301.020507812 l 1
 1010.78710938 302.037109375 988.084960938 302 971 302 c 0
 486.920898438 302 234 126.588867188 234 -187 c 0
 234 -427.112304688 432.821289062 -562 766 -562 c 0
 896.645507812 -562 1027.81542969 -532.684570312 1151.11914062 -480.491210938 c 1
 1173.87011719 -590.998046875 l 1
 1051.11035156 -647.092773438 912.389648438 -674 755 -674 c 0
 395.063476562 -674 128 -514.892578125 128 -194 c 0
 128 21.158203125 223.764648438 227.188476562 449.205078125 327.594726562 c 2
 486.036132812 343.999023438 l 1
 459.743164062 374.564453125 l 2
 383.940429688 462.684570312 352 553.934570312 352 653 c 0
 352 827.791992188 517.923828125 989 705 989 c 0
 792.274414062 989 890.849609375 956.030273438 996.1640625 888.1328125 c 1
 954.200195312 795.301757812 l 1
EndSplineSet
Substitution2: "'fina' Terminal Forms in Arabic lookup 9 subtable" uniFECA
Substitution2: "'medi' Medial Forms in Arabic lookup 11 subtable" uniFECC
Substitution2: "'init' Initial Forms in Arabic lookup 13 subtable" uniFECB
EndChar

StartChar: uni0640
Encoding: 1600 1600 35
GlifName: afii57440
Width: 286
VWidth: 2920
GlyphClass: 2
Flags: HW
AnchorPoint: "Anchor-10" 143.774 840.11 basechar 0
AnchorPoint: "Anchor-7" 147.7 -266.739 basechar 0
LayerCount: 2
Fore
SplineSet
-19 0 m 5
 -19 120 l 5
 305 120 l 1
 305 0 l 1
 -19 0 l 5
EndSplineSet
EndChar

StartChar: uni0643
Encoding: 1603 1603 38
GlifName: uni0643
Width: 1871
VWidth: 2920
GlyphClass: 2
Flags: HW
AnchorPoint: "Anchor-7" 900.268 -256.468 basechar 0
AnchorPoint: "Anchor-10" 948.11 1360.05 basechar 0
LayerCount: 2
Fore
SplineSet
718 574.637695312 m 1
 768.642578125 569.6171875 810.37890625 567 849 567 c 0
 938.293945312 567 1095 569.912109375 1095 690 c 0
 1095 784.44921875 1013.70605469 814.48046875 945.559570312 824.651367188 c 0
 815.401367188 845.251953125 763 900.85546875 763 999 c 0
 763 1111.95019531 857.639648438 1183.31835938 1092 1207.2109375 c 1
 1092 1142.05761719 l 1
 943.66015625 1125.16992188 832 1088.93457031 832 998 c 0
 832 920.807617188 905.055664062 885.40625 998.451171875 871.346679688 c 0
 1115.09179688 853.122070312 1163 797.715820312 1163 694 c 0
 1163 566.844726562 1044.91015625 499 866 499 c 0
 822.748046875 499 771.318359375 502.834960938 718 510.008789062 c 1
 718 574.637695312 l 1
978 120 m 2
 1451.66601562 120 1584 222.071289062 1584 440 c 2
 1584 1326 l 1
 1693 1326 l 1
 1693 442 l 2
 1693 147.353515625 1558.83398438 0 985 0 c 2
 840 0 l 2
 365.087890625 0 128 156.538085938 128 454 c 0
 128 528.747070312 143.16015625 602.15234375 168.837890625 669.712890625 c 1
 267.112304688 633.100585938 l 1
 250.8671875 581.138671875 243 531.252929688 243 478.931640625 c 0
 244.119140625 232.771484375 459.916992188 120 830 120 c 2
 978 120 l 2
EndSplineSet
Substitution2: "'fina' Terminal Forms in Arabic lookup 9 subtable" uniFEDA
Substitution2: "'medi' Medial Forms in Arabic lookup 11 subtable" uniFEDC
Substitution2: "'init' Initial Forms in Arabic lookup 13 subtable" uniFEDB
EndChar

StartChar: uni0644
Encoding: 1604 1604 39
GlifName: uni0644
Width: 1377
VWidth: 2920
GlyphClass: 2
Flags: HW
AnchorPoint: "Anchor-7" 662.902 -738.086 basechar 0
AnchorPoint: "Anchor-10" 654.908 975.66 basechar 0
LayerCount: 2
Fore
SplineSet
296.512695312 311.259765625 m 1
 258.135742188 207.099609375 239 115.385742188 239 6 c 0
 239 -264.514648438 392.232421875 -407 675 -407 c 0
 945.009765625 -407 1088 -250.270507812 1088 37.931640625 c 2
 1090.93164062 1326 l 1
 1198.9765625 1326 l 1
 1198 77 l 2
 1198 -330.740234375 1026.05664062 -520 674 -520 c 0
 303.299804688 -520 128 -350.095703125 128 7 c 0
 128 128.486328125 150.577148438 233.755859375 196.600585938 351.869140625 c 1
 296.512695312 311.259765625 l 1
EndSplineSet
Substitution2: "'fina' Terminal Forms in Arabic lookup 9 subtable" uniFEDE
Substitution2: "'medi' Medial Forms in Arabic lookup 11 subtable" uniFEE0
Substitution2: "'init' Initial Forms in Arabic lookup 13 subtable" uniFEDF
EndChar

StartChar: uni0645
Encoding: 1605 1605 40
GlifName: uni0645
Width: 1240
VWidth: 2590
GlyphClass: 2
Flags: HW
AnchorPoint: "Anchor-10" 773.952 990.2 basechar 0
AnchorPoint: "Anchor-7" 724.983 -368.909 basechar 0
LayerCount: 2
Fore
SplineSet
551.623046875 242.287109375 m 2
 673.034179688 148.193359375 771.749023438 95 853.182617188 95 c 0
 952.544921875 96.2119140625 1005 162.059570312 1005 265 c 0
 1005 398.03515625 927.342773438 516 791 516 c 0
 675.62890625 516 594.98046875 423.502929688 541.783203125 276.189453125 c 2
 534.369140625 255.659179688 l 1
 551.623046875 242.287109375 l 2
140.299804688 -665 m 1
 134.26953125 -558.793945312 131 -469.012695312 131 -373 c 0
 131 -22.203125 183.028320312 226.900390625 400.767578125 269.559570312 c 2
 416.870117188 272.71484375 l 1
 422.900390625 287.974609375 l 2
 519.32421875 531.985351562 643.2265625 640.110351562 790.090820312 641 c 0
 985.065429688 641 1112 479.909179688 1112 277 c 0
 1112 94.15625 1028.43554688 -23 853 -23 c 0
 793.297851562 -23 715.081054688 2.796875 624.426757812 54.7353515625 c 0
 590.567382812 75.8388671875 556.797851562 93.638671875 519.782226562 112.646484375 c 0
 487.423828125 129.383789062 456.63671875 138 428.85546875 138 c 0
 288.102539062 136.646484375 244 -55.7353515625 244 -345 c 0
 244 -463.41015625 248.21484375 -568.71875 255.506835938 -665 c 1
 140.299804688 -665 l 1
EndSplineSet
Substitution2: "'init' Initial Forms in Arabic lookup 13 subtable" uniFEE3
Substitution2: "'medi' Medial Forms in Arabic lookup 11 subtable" uniFEE4
Substitution2: "'fina' Terminal Forms in Arabic lookup 9 subtable" uniFEE2
EndChar

StartChar: uni0647
Encoding: 1607 1607 42
GlifName: uni0647
Width: 942
VWidth: 2920
GlyphClass: 2
Flags: HW
AnchorPoint: "Anchor-10" 419.775 1179.01 basechar 0
AnchorPoint: "Anchor-7" 445.63 -272.576 basechar 0
LayerCount: 2
Fore
SplineSet
437.168945312 637.510742188 m 2
 309.684570312 525.203125 235 421.291992188 235 319 c 0
 235 188.470703125 323.260742188 120 470 120 c 0
 617.5859375 120 707 188.323242188 707 320 c 0
 707 419.080078125 619.353515625 522.93359375 475.80078125 638.377929688 c 2
 456.120117188 654.205078125 l 1
 437.168945312 637.510742188 l 2
385.178710938 870.115234375 m 1
 678.638671875 650.696289062 814 463.001953125 814 314 c 0
 814 136.71875 684.091796875 6.818359375 470.801757812 4 c 0
 251.475585938 4 128 113.418945312 128 314 c 0
 128 440.086914062 200.747070312 577.268554688 347.998046875 721.573242188 c 2
 371.243164062 744.354492188 l 1
 346.647460938 765.670898438 l 1
 322.719726562 786.408203125 l 1
 385.178710938 870.115234375 l 1
EndSplineSet
Substitution2: "'fina' Terminal Forms in Arabic lookup 9 subtable" uniFEEA
Substitution2: "'medi' Medial Forms in Arabic lookup 11 subtable" uniFEEC
Substitution2: "'init' Initial Forms in Arabic lookup 13 subtable" uniFEEB
EndChar

StartChar: uni0648
Encoding: 1608 1608 43
GlifName: uni0648
Width: 880
VWidth: 2112
GlyphClass: 2
Flags: HW
AnchorPoint: "Anchor-7" 415.969 -669.998 basechar 0
AnchorPoint: "Anchor-10" 430.256 1000.2 basechar 0
LayerCount: 2
Fore
SplineSet
612.232421875 12.7626953125 m 2
 533.979492188 2.857421875 477.739257812 -2 457 -2 c 0
 226.681640625 -2 128 84.41015625 128 266 c 0
 128 483.948242188 256.452148438 660 428 660 c 0
 642.99609375 660 752 412.376953125 752 136 c 0
 752 -215.247070312 566.578125 -443.17578125 186.801757812 -523.619140625 c 1
 148.905273438 -426.353515625 l 1
 425.365234375 -366.086914062 591.5390625 -223.10546875 644.966796875 -24.8046875 c 2
 656.6015625 18.37890625 l 1
 612.232421875 12.7626953125 l 2
645.940429688 170.887695312 m 2
 631.954101562 392.666992188 564.506835938 535 420 535 c 0
 300.44921875 535 233 402.20703125 233 281 c 0
 233 166.946289062 322.65234375 112 458 112 c 0
 514.23828125 112 570.05078125 123.791015625 624.669921875 140.280273438 c 2
 647.4375 147.153320312 l 1
 645.940429688 170.887695312 l 2
EndSplineSet
Substitution2: "'fina' Terminal Forms in Arabic lookup 9 subtable" uniFEEE
EndChar

StartChar: uni0649
Encoding: 1609 1609 44
GlifName: uni0649
Width: 1477
VWidth: 2950
GlyphClass: 2
Flags: HW
AnchorPoint: "Anchor-7" 716.902 -706.086 basechar 0
AnchorPoint: "Anchor-10" 644.6 916.22 basechar 0
LayerCount: 2
Fore
SplineSet
322.077148438 438.4375 m 1
 267.327148438 297.885742188 239 170.389648438 239 52 c 0
 239 -236.60546875 409.215820312 -386.9609375 724 -388 c 0
 958.161132812 -388 1247 -287.762695312 1247 -72 c 0
 1247 -10.521484375 1194.58984375 15 1137.11230469 15 c 2
 1003.18652344 15.9990234375 l 2
 856.365234375 16.9111328125 792 81.89453125 792 230 c 0
 792 460.984375 1023.0546875 665.139648438 1329 682.868164062 c 1
 1329 565.14453125 l 1
 1116.03027344 546.684570312 908 420.7421875 908 239 c 0
 908 177.966796875 944.495117188 135 1005 135 c 2
 1144 135 l 2
 1291.06640625 135 1349 81.814453125 1349 -32 c 0
 1349 -328.259765625 1103.52441406 -499 719 -499 c 0
 317.41015625 -499 128 -321.20703125 128 49 c 0
 128 178.262695312 159.635742188 323.6484375 222.323242188 478.981445312 c 1
 322.077148438 438.4375 l 1
EndSplineSet
Substitution2: "'fina' Terminal Forms in Arabic lookup 9 subtable" uniFEF0
Substitution2: "'medi' Medial Forms in Arabic lookup 11 subtable" uniFBE9
Substitution2: "'init' Initial Forms in Arabic lookup 13 subtable" uniFBE8
EndChar

StartChar: uni064B
Encoding: 1611 1611 46
GlifName: uni064B_
Width: -26
VWidth: 2316
GlyphClass: 4
Flags: HW
AnchorPoint: "Anchor-10" 583.551 1123.65 mark 0
AnchorPoint: "Anchor-9" 583.551 1123.65 mark 0
AnchorPoint: "Anchor-1" 553.285 1596.25 basemark 0
AnchorPoint: "Anchor-1" 583.551 1123.65 mark 0
LayerCount: 2
Fore
SplineSet
337 1090.92151333 m 1
 337 1173.28462438 l 1
 772 1351.10880021 l 1
 772 1269.70173311 l 1
 337 1090.92151333 l 1
337 1302.92151333 m 1
 337 1385.28462438 l 1
 772 1563.10880021 l 1
 772 1481.70173311 l 1
 337 1302.92151333 l 1
EndSplineSet
EndChar

StartChar: uni064C
Encoding: 1612 1612 47
GlifName: uni064C_
Width: -26
VWidth: 2316
GlyphClass: 4
Flags: HW
AnchorPoint: "Anchor-10" 680.906 1278.67 mark 0
AnchorPoint: "Anchor-9" 680.906 1278.67 mark 0
AnchorPoint: "Anchor-1" 637.739 1852.46 basemark 0
AnchorPoint: "Anchor-1" 680.906 1278.67 mark 0
LayerCount: 2
Fore
SplineSet
499 1629 m 0
 499 1720.92254991 562.661044562 1781 652 1781 c 0
 741.818302147 1781 804 1721.98682063 804 1628 c 0
 804 1590.69711065 794.369726464 1549.9067844 777.796690815 1510.9114064 c 2
 772.87783625 1499.33763095 l 1
 785.262146661 1497.15216441 l 2
 798.152493966 1494.87739724 810.795997681 1493.68632728 820 1493.23866995 c 1
 820 1437.59528011 l 1
 800.810485742 1438.90086077 782.068510108 1440.91141723 755.842885351 1445.82872187 c 2
 747.90683005 1447.31673224 l 1
 744.780178944 1439.87232484 l 2
 682.501335639 1291.58936459 592.724868867 1220.99202128 471.867219481 1220.99202128 c 0
 348.095082448 1220.99202128 283.288632669 1303.88766641 278.182610319 1481.64870098 c 1
 337.334833979 1492.13137352 l 1
 342.41376358 1354.752554 385.729378928 1279 473 1279 c 0
 552.48225941 1279 622.089813995 1336.98342205 681.717971853 1443.1013301 c 2
 687.560305304 1453.49870319 l 1
 676.303504248 1457.43858356 l 2
 570.664770657 1494.41214032 499 1540.9420679 499 1629 c 0
718.1914503 1519.06080701 m 2
 732.476611679 1552.39285023 746 1592.05787208 746 1627 c 0
 746 1680.25404628 705.390224418 1721 656 1721 c 0
 600.76727936 1721 559 1682.66242438 559 1625 c 0
 559 1558.07309596 643.209905311 1530.07061012 706.441074397 1513.33294772 c 2
 714.789556725 1511.12305534 l 1
 718.1914503 1519.06080701 l 2
EndSplineSet
EndChar

StartChar: uni064D
Encoding: 1613 1613 48
GlifName: uni064D_
Width: -26
VWidth: 2316
GlyphClass: 4
Flags: HW
AnchorPoint: "Anchor-7" 542.278 32.7109 mark 0
AnchorPoint: "Anchor-6" 542.278 32.7109 mark 0
AnchorPoint: "Anchor-0" 592.022 -407.025 basemark 0
AnchorPoint: "Anchor-0" 542.278 32.7109 mark 0
LayerCount: 2
Fore
SplineSet
342 -431.121153945 m 1
 342 -348.720951318 l 1
 778 -170.878846055 l 1
 778 -253.279048682 l 1
 342 -431.121153945 l 1
342 -219.121153945 m 1
 342 -136.720951318 l 1
 778 41.1211539453 l 1
 778 -41.2790486821 l 1
 342 -219.121153945 l 1
EndSplineSet
EndChar

StartChar: uni064E
Encoding: 1614 1614 49
GlifName: uni064E_
Width: -26
VWidth: 2316
GlyphClass: 4
Flags: HW
AnchorPoint: "Anchor-10" 545.66 1397.63 mark 0
AnchorPoint: "Anchor-9" 545.66 1397.63 mark 0
AnchorPoint: "Anchor-1" 541.396 1651.77 basemark 0
AnchorPoint: "Anchor-1" 545.66 1397.63 mark 0
LayerCount: 2
Fore
SplineSet
306 1363.87884605 m 1
 306 1446.27904868 l 1
 742 1624.12115395 l 1
 742 1541.72095132 l 1
 306 1363.87884605 l 1
EndSplineSet
EndChar

StartChar: uni064F
Encoding: 1615 1615 50
GlifName: uni064F_
Width: -26
VWidth: 2316
GlyphClass: 4
Flags: HW
AnchorPoint: "Anchor-10" 591.295 1359.37 mark 0
AnchorPoint: "Anchor-9" 591.295 1359.37 mark 0
AnchorPoint: "Anchor-1" 542.134 1865.4 basemark 0
AnchorPoint: "Anchor-1" 591.295 1359.37 mark 0
LayerCount: 2
Fore
SplineSet
713 1437.08795008 m 1
 688.798733432 1437.52747365 667.000483232 1439.42526907 644.520571843 1442.88371698 c 2
 638.439059774 1443.81933422 l 1
 634.862665288 1438.81238194 l 2
 573.534607547 1352.9531011 465.336836349 1304.00764091 310 1293.62561942 c 1
 310 1351.91274315 l 1
 437.308366631 1364.69105511 524.619771416 1396.37802196 573.286276689 1448.15089991 c 2
 585.880740173 1461.54926532 l 1
 567.788854382 1464.8386991 l 2
 478.019800351 1481.16034529 390 1540.12264246 390 1626 c 0
 390 1718.32861787 453.843355245 1778 543 1778 c 0
 632.369621572 1778 696 1717.93084224 696 1625 c 0
 696 1587.56142432 687.385800034 1549.92144834 670.762578864 1509.83015023 c 2
 665.880053686 1498.05464833 l 1
 678.479428157 1496.11628302 l 2
 688.828822367 1494.52406853 700.870758606 1492.92939687 713 1492.25983279 c 1
 713 1437.08795008 l 1
609.1914503 1516.06080701 m 2
 623.476611679 1549.39285023 637 1589.05787208 637 1624 c 0
 637 1677.77012842 596.96915978 1717 547 1717 c 0
 491.55586692 1717 450 1680.05348045 450 1622 c 0
 450 1555.07309596 534.209905311 1527.07061012 597.441074397 1510.33294772 c 2
 605.789556725 1508.12305534 l 1
 609.1914503 1516.06080701 l 2
EndSplineSet
EndChar

StartChar: uni0650
Encoding: 1616 1616 51
GlifName: uni0650
Width: -26
VWidth: 2316
GlyphClass: 4
Flags: HW
AnchorPoint: "Anchor-7" 571.144 -44.8242 mark 0
AnchorPoint: "Anchor-6" 571.144 -44.8242 mark 0
AnchorPoint: "Anchor-0" 619.091 -324.624 basemark 0
AnchorPoint: "Anchor-0" 571.144 -44.8242 mark 0
LayerCount: 2
Fore
SplineSet
353 -331.078486667 m 1
 353 -248.715375617 l 1
 788 -70.891199793 l 1
 788 -152.298266887 l 1
 353 -331.078486667 l 1
EndSplineSet
EndChar

StartChar: uni0651
Encoding: 1617 1617 52
GlifName: uni0651
Width: -26
VWidth: 2393
GlyphClass: 4
Flags: HW
AnchorPoint: "Anchor-10" 598.801 1453.71 mark 0
AnchorPoint: "Anchor-9" 598.801 1453.71 mark 0
AnchorPoint: "Anchor-1" 570.087 1839.1 basemark 0
AnchorPoint: "Anchor-1" 598.801 1453.71 mark 0
LayerCount: 2
Fore
SplineSet
598.316724329 1748 m 1
 599.050100663 1722.56448188 599.210869212 1699.78340193 601.027318961 1675.26133032 c 0
 605.5760815 1613.8490926 628.307282161 1564 681 1564 c 0
 735.89369238 1564 758 1606.72780802 758 1675 c 0
 758 1699.4752814 752.30268934 1738.05425307 742.892297548 1784.76619761 c 1
 811.792831842 1795.72764624 l 1
 822.065718744 1757.88659806 827 1721.35345252 827 1685 c 0
 827 1552.28380769 780.815224925 1492.92720657 689.94898092 1492 c 0
 649.64606779 1492 605.524222654 1512.31223447 589.94427191 1543.47213595 c 2
 577.96593822 1567.42880334 l 1
 571.31336134 1541.4837535 l 2
 552.878995425 1469.58972644 490.963227508 1448 432 1448 c 0
 345.119231724 1448 303.873817788 1501.51175401 303.873817788 1616.0779836 c 0
 303.873817788 1647.7191824 308.141126629 1679.13661995 314.385613581 1704.63112685 c 1
 373.062120929 1694.85170896 l 1
 367.311145496 1665.04394705 366 1642.3858646 366 1620 c 0
 366 1560.8907373 392.662741806 1526 444 1526 c 0
 539.015415409 1526 541.4140625 1600.13074476 541.4140625 1719.33203125 c 0
 541.4140625 1728.33017375 541.323098297 1739.47934345 541.189708697 1748 c 1
 598.316724329 1748 l 1
EndSplineSet
EndChar

StartChar: uni0652
Encoding: 1618 1618 53
GlifName: uni0652
Width: -26
VWidth: 2316
GlyphClass: 4
Flags: HW
AnchorPoint: "Anchor-10" 595.219 1271.43 mark 0
AnchorPoint: "Anchor-9" 595.219 1271.43 mark 0
AnchorPoint: "Anchor-1" 589.537 1682.66 basemark 0
AnchorPoint: "Anchor-1" 595.219 1271.43 mark 0
LayerCount: 2
Fore
SplineSet
431.07421875 1461.82128906 m 0
 431.07421875 1552.50640373 503.720107133 1625.14941406 594.40234375 1625.14941406 c 0
 685.086633523 1625.14941406 757.731445312 1552.50289097 757.731445312 1461.82128906 c 0
 757.731445312 1415.78178997 742.090912197 1377.6373447 710.33915705 1345.88558954 c 0
 678.586586176 1314.13363487 640.441866241 1298.49316406 594.40234375 1298.49316406 c 0
 503.718303461 1298.49316406 431.07421875 1371.14005914 431.07421875 1461.82128906 c 0
492.664557556 1461.0223626 m 0
 491.688403329 1403.82859904 539.116338676 1357.03211518 596.776955919 1356.92872744 c 0
 654.25449317 1357.03314623 701.069650439 1403.63257871 700.851489986 1460.98437839 c 0
 701.070446569 1518.47920788 654.292571023 1564.94661293 596.730051431 1565.11421652 c 0
 539.149883911 1564.94874407 491.681822355 1518.53542724 492.664557556 1461.0223626 c 0
EndSplineSet
EndChar

StartChar: uni0653
Encoding: 1619 1619 54
GlifName: uni0653
Width: -30
VWidth: 2673
GlyphClass: 4
Flags: HW
AnchorPoint: "Anchor-10" 461.017 1539.11 mark 0
AnchorPoint: "Anchor-9" 461.017 1539.11 mark 0
AnchorPoint: "Anchor-1" 449.017 1883.25 basemark 0
AnchorPoint: "Anchor-1" 461.017 1539.11 mark 0
LayerCount: 2
Fore
SplineSet
373.235351562 1668.82714844 m 0
 306.380574013 1668.82714844 246.474735194 1628.03148766 195.979188846 1572.3050824 c 1
 122.162109375 1641.12207031 l 5
 186.803710938 1728.23828125 258.46484375 1775.68457031 338.674804688 1775.68457031 c 4
 415.684570312 1775.68457031 483.544921875 1734.62207031 574.038085938 1734.62207031 c 4
 627.155273438 1734.62207031 683.662109375 1749.71386719 742.963867188 1777.3515625 c 5
 791.769402689 1684.73983507 l 1
 729.992891806 1649.9732298 667.276971409 1632.77568603 600.071557636 1632.77568603 c 0
 525.342909667 1632.77568603 458.073801287 1668.82714844 373.235351562 1668.82714844 c 0
EndSplineSet
EndChar

StartChar: uni0657
Encoding: 1623 1623 57
GlifName: uni0657
Width: -26
VWidth: 2316
GlyphClass: 4
Flags: HW
AnchorPoint: "Anchor-10" 513.285 1400.55 mark 0
AnchorPoint: "Anchor-9" 513.285 1400.55 mark 0
AnchorPoint: "Anchor-1" 537.285 2069.85 basemark 0
AnchorPoint: "Anchor-1" 513.285 1400.55 mark 0
LayerCount: 2
Fore
SplineSet
275 1794.70522489 m 1
 313.495273456 1793.40577131 350.860322619 1790.63928287 393.942139454 1786.05611087 c 2
 398.692851584 1785.55071596 l 1
 402.071067812 1788.92893219 l 1
 403.071067812 1789.92893219 l 1
 403.680120592 1790.53798497 l 1
 404.176056394 1791.24221381 l 2
 500.639323123 1928.22005256 623.720602118 2004.62763269 775 2021.91192971 c 1
 775 1963.44008912 l 1
 652.351140308 1941.39902177 553.821938133 1881.77251601 478.097801988 1784.12823519 c 2
 469.10064367 1772.52663631 l 1
 483.191012468 1768.40262593 l 2
 569.085052863 1743.26290679 648 1690.38611331 648 1599 c 0
 648 1512.74449768 587.396605318 1448 501 1448 c 0
 413.439353297 1448 342 1508.43593265 342 1603 c 0
 342 1630.43754848 348.737938257 1669.62004518 364.524241472 1718.95224273 c 2
 368.390877545 1731.03548046 l 1
 355.738716855 1731.97267754 l 2
 331.722701265 1733.75164166 303.327819772 1735.61736866 275 1735.94327152 c 1
 275 1794.70522489 l 1
501 1506 m 0
 554.854846155 1506 587 1544.54692007 587 1597 c 0
 587 1667.31280652 504.97224392 1703.095672 439.316205272 1718.72806215 c 2
 431.054805507 1720.69506209 l 1
 427.775590117 1712.86138088 l 2
 409.526845118 1669.26715672 400 1634.19059597 400 1605 c 0
 400 1547.02085847 446.267415898 1506 501 1506 c 0
EndSplineSet
EndChar

StartChar: uni065A
Encoding: 1626 1626 58
GlifName: uni065A_
Width: 1135
VWidth: 2316
GlyphClass: 4
Flags: HW
AnchorPoint: "Anchor-10" 573.285 1350.55 mark 0
AnchorPoint: "Anchor-9" 573.285 1350.55 mark 0
AnchorPoint: "Anchor-1" 571.012 1862.38 basemark 0
AnchorPoint: "Anchor-1" 573.285 1350.55 mark 0
LayerCount: 2
Fore
SplineSet
507.682941341 1454 m 1
 326.596521588 1758 l 1
 427.256296675 1758 l 1
 564.362210991 1522.96128974 l 1
 572.969288359 1508.20629997 l 1
 581.622111466 1522.93450951 l 1
 719.723087127 1758 l 1
 820.356788881 1758 l 1
 638.332097523 1454 l 1
 507.682941341 1454 l 1
EndSplineSet
EndChar

StartChar: uni0660
Encoding: 1632 1632 59
GlifName: afii57392
Width: 902
VWidth: 2655
GlyphClass: 2
Flags: HW
LayerCount: 2
Fore
SplineSet
173.580078125 473 m 4
 173.580078125 625.290039062 298.709960938 750.419921875 451 750.419921875 c 4
 603.290039062 750.419921875 728.419921875 625.290039062 728.419921875 473 c 4
 728.419921875 320.709960938 603.290039062 195.580078125 451 195.580078125 c 4
 298.709960938 195.580078125 173.580078125 320.709960938 173.580078125 473 c 4
269 473 m 0
 269 373 350 290 451 290 c 0
 552 290 633 373 633 473 c 0
 633 574 551 654 451 654 c 0
 351 654 269 574 269 473 c 0
EndSplineSet
EndChar

StartChar: uni0661
Encoding: 1633 1633 60
GlifName: afii57393
Width: 651
VWidth: 2950
GlyphClass: 2
Flags: HW
LayerCount: 2
Fore
SplineSet
257.904296875 1272.17871094 m 1
 383.41796875 982.303710938 447 644.767578125 447 235 c 2
 447 0 l 1
 337 0 l 1
 337 238 l 2
 337 650.743164062 277.861328125 979.051757812 159.245117188 1236.13085938 c 1
 257.904296875 1272.17871094 l 1
EndSplineSet
EndChar

StartChar: uni0662
Encoding: 1634 1634 61
GlifName: afii57394
Width: 1114
VWidth: 2950
GlyphClass: 2
Flags: HW
LayerCount: 2
Fore
SplineSet
337 238 m 2
 337 650.684570312 277.802734375 979.178710938 159.295898438 1236.02148438 c 1
 255.362304688 1270.72949219 l 1
 282.59375 1198.796875 309.352539062 1130.28613281 335.943359375 1059.37890625 c 0
 386.145507812 927.997070312 472.109375 855 624 855 c 0
 786.87109375 855 860 976.955078125 860 1140 c 0
 860 1184.13476562 853.454101562 1234.3828125 847.521484375 1273.69238281 c 1
 955.936523438 1285.88085938 l 1
 961.032226562 1243.90722656 966 1194.87207031 966 1150 c 0
 966 888.28125 846.712890625 742 626 742 c 0
 539.719366188 742 464.136169978 770.151812187 400.794921875 801.583984375 c 5
 408.298828125 748.779296875 l 2
 435.125 560.001953125 447 392.484375 447 235 c 2
 447 0 l 1
 337 0 l 1
 337 238 l 2
EndSplineSet
EndChar

StartChar: uni0663
Encoding: 1635 1635 62
GlifName: afii57395
Width: 1411
VWidth: 2950
GlyphClass: 2
Flags: HW
LayerCount: 2
Fore
SplineSet
337 238 m 6
 337 650.684570312 277.802734375 979.178710938 159.295898438 1236.02148438 c 5
 254.88671875 1270.55761719 l 5
 288.41015625 1177.12109375 321.051757812 1088.640625 353.755859375 996.887695312 c 4
 387.081054688 903.805664062 462.953125 856.106445312 565.838867188 855 c 4
 685.0703125 855 727.01171875 976.918945312 728 1150.91503906 c 4
 728 1173.63085938 728.512695312 1197.38476562 728.8046875 1220.40917969 c 5
 824.162109375 1228.45898438 l 5
 825.216796875 1203.03417969 826.317382812 1180.77148438 827.016601562 1156.98242188 c 4
 833.94921875 976.747070312 880.627929688 855 999 855 c 4
 1130.49023438 855 1158 982.577148438 1158 1084 c 4
 1158 1163.29394531 1149.64941406 1226.22949219 1141.85839844 1273.91601562 c 5
 1249.95117188 1286.70800781 l 5
 1256.265625 1235.15136719 1263 1169.83398438 1263 1090 c 4
 1263 877.284179688 1177.84960938 742 995 742 c 4
 920.994140625 742 856.18359375 770.8828125 794.77734375 842.5234375 c 6
 771.647460938 869.508789062 l 5
 748.928710938 842.17578125 l 6
 689.358398438 770.504882812 623.423828125 742 568 742 c 4
 502.04296875 742 428.375976562 774.92578125 401.78515625 802.659179688 c 5
 410.280273438 740.911132812 l 6
 436.143554688 552.905273438 447 402.681640625 447 235 c 6
 447 0 l 5
 337 0 l 5
 337 238 l 6
EndSplineSet
EndChar

StartChar: uni0664
Encoding: 1636 1636 63
GlifName: afii57396
Width: 1006
VWidth: 2950
GlyphClass: 2
Flags: HW
LayerCount: 2
Fore
SplineSet
737.776367188 634.1171875 m 1
 451.193359375 516.727539062 284 407.4609375 284 281 c 0
 284 146.041015625 472.741210938 120 704 120 c 2
 866.331054688 120 l 1
 867.665039062 -0 l 1
 697.080078125 -0 l 2
 323.995117188 1 161 99.1513671875 161 277 c 0
 161 409.405273438 284.573242188 536.205078125 541.213867188 650.598632812 c 2
 625.484375 688.161132812 l 1
 535.237304688 707.344726562 l 2
 334.435546875 750.02734375 244 836.204101562 244 983 c 0
 244 1167.05273438 424.389648438 1276.078125 656.189453125 1279 c 0
 689.919921875 1279 728.129882812 1277.06152344 765.974609375 1273.35742188 c 1
 757.334960938 1155.06640625 l 1
 734.411132812 1157.0703125 714.311523438 1158 694 1158 c 0
 505.088867188 1158 379 1103.10742188 379 966 c 0
 379 842.427734375 523.849609375 789.0625 736.30078125 767.622070312 c 1
 737.776367188 634.1171875 l 1
EndSplineSet
EndChar

StartChar: uni0665
Encoding: 1637 1637 64
GlifName: afii57397
Width: 1177
VWidth: 2950
GlyphClass: 2
Flags: HW
LayerCount: 2
Fore
SplineSet
540.060546875 989.461914062 m 2
 356.744140625 792.905273438 259 581.353515625 259 438 c 0
 259 267.778320312 370.6484375 118 595 118 c 0
 805.5703125 118 919 269.619140625 919 445 c 0
 919 613.37890625 790.8828125 825.12890625 580.685546875 992.470703125 c 2
 558.981445312 1009.74902344 l 1
 540.060546875 989.461914062 l 2
476.938476562 1237.03613281 m 1
 854.353515625 962.698242188 1031 722.122070312 1031 422 c 0
 1031 183.400390625 872.212890625 0 591 0 c 0
 292.098632812 0 147 188.6328125 147 421 c 0
 147 634.825195312 247.840820312 835.876953125 441.749023438 1061.44335938 c 2
 462.313476562 1085.36523438 l 1
 437.389648438 1104.70214844 l 1
 402.143554688 1132.04882812 l 1
 476.938476562 1237.03613281 l 1
EndSplineSet
EndChar

StartChar: uni0666
Encoding: 1638 1638 65
GlifName: afii57398
Width: 1215
VWidth: 2920
GlyphClass: 2
Flags: HW
LayerCount: 2
Fore
SplineSet
899.641601562 0 m 5
 822.470703125 324.93359375 780.77734375 661.59765625 772.994140625 1056.59082031 c 6
 772.234375 1095.12890625 l 5
 735.063476562 1084.93066406 l 6
 623.046875 1054.20117188 543.0078125 1039 434 1039 c 4
 313.668945312 1039 231.78515625 1061.39160156 123 1109.42675781 c 5
 123 1250.78320312 l 5
 237.98828125 1201.58691406 339.907226562 1176 480 1176 c 4
 618.119140625 1176 738.09375 1204.31445312 874.686523438 1255.52929688 c 5
 884.247070312 721.93359375 931.633789062 314.729492188 1020.05761719 0 c 5
 899.641601562 0 l 5
EndSplineSet
EndChar

StartChar: uni0667
Encoding: 1639 1639 66
GlifName: afii57399
Width: 1246
VWidth: 2950
GlyphClass: 2
Flags: HW
LayerCount: 2
Fore
SplineSet
567.129882812 0 m 1
 478.40625 490.87109375 324.033203125 924.427734375 142.662109375 1213.99804688 c 1
 243.6953125 1268.75195312 l 1
 409.960892 978.063697903 546.1484375 590.46484375 624.422851562 134.052734375 c 5
 700.591796875 591.069335938 836.653794026 979.133342339 1002.3046875 1268.75195312 c 1
 1103.33984375 1213.99707031 l 1
 921.280273438 923.224609375 768.188476562 488.795898438 679.869140625 -0 c 1
 567.129882812 0 l 1
EndSplineSet
EndChar

StartChar: uni0668
Encoding: 1640 1640 67
GlifName: afii57400
Width: 1246
VWidth: 2950
GlyphClass: 2
Flags: HW
LayerCount: 2
Fore
SplineSet
567.129882812 1265 m 1
 679.869140625 1265 l 1
 768.563476562 774.131835938 921.9765625 340.663085938 1103.33984375 51.0029296875 c 1
 1002.3046875 -3.751953125 l 1
 835.803511098 287.352517503 700.665039062 683.490234375 624.422851562 1140.94726562 c 5
 546.2265625 684.990234375 409.102741326 285.436393188 243.6953125 -3.751953125 c 1
 142.662109375 51.001953125 l 1
 324.73046875 341.685546875 478.780273438 776.198242188 567.129882812 1265 c 1
EndSplineSet
EndChar

StartChar: uni0669
Encoding: 1641 1641 68
GlifName: afii57401
Width: 1026
GlyphClass: 2
Flags: HW
LayerCount: 2
Fore
SplineSet
137 917 m 0
 137 1095.01171875 280.76171875 1273 462 1273 c 0
 703.53125 1273 769.501953125 1096.14941406 784.037109375 815.51171875 c 0
 798.73828125 519.569335938 809.5078125 245.931640625 816.19140625 -0 c 1
 708.217773438 0 l 1
 704.017578125 157.452148438 694.325195312 501.922851562 690.990234375 629.782226562 c 2
 689.966796875 669.010742188 l 1
 652.379882812 657.734375 l 2
 621.075195312 648.342773438 561.345703125 634 483 634 c 0
 241.756835938 634 137 711.423828125 137 917 c 0
461 1162 m 0
 332.9609375 1162 243 1035.38769531 243 917 c 0
 243 800.439453125 325.063476562 744 486 744 c 0
 542.01171875 744 618.774414062 759.2109375 655.620117188 770.265625 c 2
 678.397460938 777.098632812 l 1
 676.944335938 800.833984375 l 2
 670.12890625 912.126953125 663.59375 1016.16503906 615.287109375 1086.91601562 c 0
 583.077148438 1134.09179688 531.53125 1162 461 1162 c 0
EndSplineSet
EndChar

StartChar: uni066A
Encoding: 1642 1642 69
GlifName: afii57381
Width: 1033
VWidth: 4036
GlyphClass: 2
Flags: HW
LayerCount: 2
Fore
SplineSet
757 1282 m 1
 834 1247 l 1
 277 15 l 1
 200 50 l 1
 757 1282 l 1
667 163 m 0
 667 220 714 267 770 267 c 0
 826 267 873 220 873 163 c 0
 873 107 826 60 770 60 c 0
 712 60 667 104 667 163 c 0
160 1129 m 0
 160 1186 207 1233 263 1233 c 0
 319 1233 366 1186 366 1129 c 0
 366 1073 319 1026 263 1026 c 0
 205 1026 160 1070 160 1129 c 0
EndSplineSet
EndChar

StartChar: uni066B
Encoding: 1643 1643 70
GlifName: uni066B_
Width: 772
VWidth: 2920
GlyphClass: 2
Flags: HW
LayerCount: 2
Fore
SplineSet
549.604492188 643.765625 m 1
 621.470703125 613.208007812 l 1
 183.368164062 -398.6015625 l 1
 108.556640625 -366.375 l 1
 549.604492188 643.765625 l 1
EndSplineSet
PairPos2: "'kern' Horizontal Kerning lookup 15-4" uni06F2 dx=-130 dy=0 dh=-130 dv=0 dx=0 dy=0 dh=0 dv=0
PairPos2: "'kern' Horizontal Kerning lookup 15-4" uni06F3 dx=-130 dy=0 dh=-130 dv=0 dx=0 dy=0 dh=0 dv=0
PairPos2: "'kern' Horizontal Kerning lookup 15-4" uni06F4 dx=-110 dy=0 dh=-110 dv=0 dx=0 dy=0 dh=0 dv=0
EndChar

StartChar: uni066C
Encoding: 1644 1644 71
GlifName: uni066C_
Width: 560
GlyphClass: 2
Flags: HW
LayerCount: 2
Fore
SplineSet
176.653944508 -261.337249504 m 1
 123.905517505 -221.359494301 l 1
 179.903355207 -135.614736324 214.337396376 -40.9461241755 217 51.5683835077 c 2
 217 189 l 1
 328 189 l 1
 328 74 l 2
 328 -56.4427651366 253.035402952 -189.518137527 176.653944508 -261.337249504 c 1
EndSplineSet
EndChar

StartChar: uni066D
Encoding: 1645 1645 72
GlifName: afii63167
Width: 1436
VWidth: 2918
GlyphClass: 2
Flags: HW
LayerCount: 2
Fore
SplineSet
242.620117188 979 m 1
 583 979 l 1
 604.72265625 979 l 1
 611.501953125 999.637695312 l 1
 718 1323.86621094 l 1
 824.498046875 999.637695312 l 1
 831.27734375 979 l 1
 853 979 l 1
 1193.37988281 979 l 1
 918.255859375 777.190429688 l 1
 900.733398438 764.336914062 l 1
 907.484375 743.680664062 l 1
 1012.875 421.215820312 l 1
 735.5546875 621.328125 l 1
 718 633.995117188 l 1
 700.4453125 621.328125 l 1
 423.125 421.215820312 l 1
 528.515625 743.680664062 l 1
 535.266601562 764.336914062 l 1
 517.744140625 777.190429688 l 1
 242.620117188 979 l 1
EndSplineSet
EndChar

StartChar: uni066E
Encoding: 1646 1646 73
GlifName: uni066E_
Width: 1767
VWidth: 2920
GlyphClass: 2
Flags: HW
AnchorPoint: "Anchor-10" 973.36 1383.35 basechar 0
AnchorPoint: "Anchor-7" 923.36 -289.261 basechar 0
LayerCount: 2
Fore
SplineSet
965 0 m 2
 840 0 l 2
 365.087890625 0 128 156.538085938 128 454 c 0
 128 528.747070312 143.16015625 602.15234375 168.837890625 669.712890625 c 1
 267.112304688 633.100585938 l 1
 250.8671875 581.138671875 243 531.252929688 243 478.931640625 c 0
 244.119140625 232.771484375 459.916992188 120 830 120 c 2
 958 120 l 2
 1222.05859375 120 1526 116.563476562 1526 418 c 0
 1526 475.819335938 1514.60742188 556.19921875 1495.54003906 645.961914062 c 1
 1599.90039062 672.051757812 l 1
 1626.45214844 584.068359375 1639 502.177734375 1639 433 c 0
 1639 55.458984375 1377.36230469 0 965 0 c 2
EndSplineSet
Substitution2: "'fina' Terminal Forms in Arabic lookup 9 subtable" uni066E.fina
EndChar

StartChar: uni066F
Encoding: 1647 1647 74
GlifName: uni066F_
Width: 1437
VWidth: 2920
GlyphClass: 2
Flags: HW
AnchorPoint: "Anchor-10" 115.809 1330.22 basechar 0
AnchorPoint: "Anchor-7" 329.219 -793.353 basechar 0
LayerCount: 2
Fore
SplineSet
1192.79101562 249.53125 m 2
 1177.40234375 379.379882812 1131.89453125 584 971 584 c 0
 864.02734375 584 781 472.525390625 781 346 c 0
 781 240.1484375 864.385742188 189 987 189 c 0
 1049.39941406 189 1111.22753906 199.563476562 1171.43847656 217.2109375 c 2
 1195.77636719 224.344726562 l 1
 1192.79101562 249.53125 l 2
304.858398438 435.119140625 m 1
 262.118164062 314.66796875 240 202.059570312 240 91 c 0
 240 -196.465820312 407.311523438 -347 725 -347 c 0
 1073.62597656 -347 1205.77050781 -186.649414062 1209.99609375 78.5224609375 c 2
 1210.64453125 119.212890625 l 1
 1171.58300781 107.794921875 l 2
 1108.93261719 89.4814453125 1045.12597656 79 971 79 c 0
 770.196289062 79 681 158.259765625 681 319 c 0
 681 513.635742188 796.020507812 699 978 699 c 0
 1216.63574219 699 1309 430.096679688 1309 126 c 0
 1309 -275.59375 1136.95996094 -460 721 -460 c 0
 314.328125 -460 128 -282.234375 128 86 c 0
 128 212.734375 153.965820312 344.143554688 204.693359375 475.83203125 c 1
 304.858398438 435.119140625 l 1
EndSplineSet
Substitution2: "'fina' Terminal Forms in Arabic lookup 9 subtable" uni066F.fina
EndChar

StartChar: uni0670
Encoding: 1648 1648 75
GlifName: uni0670
Width: -29
VWidth: 2574
GlyphClass: 4
Flags: HW
AnchorPoint: "Anchor-10" 636.984 1500.61 mark 0
AnchorPoint: "Anchor-9" 636.984 1500.61 mark 0
AnchorPoint: "Anchor-1" 636.984 1957.18 basemark 0
AnchorPoint: "Anchor-1" 636.984 1500.61 mark 0
LayerCount: 2
Fore
SplineSet
603 1578 m 1
 603 1920 l 5
 671 1920 l 5
 671 1578 l 1
 603 1578 l 1
EndSplineSet
EndChar

StartChar: uni0674
Encoding: 1652 1652 76
GlifName: uni0674
Width: 551
VWidth: 2539
GlyphClass: 2
Flags: HW
LayerCount: 2
Fore
SplineSet
195.533051264 1981.04297421 m 2
 149.361504231 2018.45549882 131 2061.07308861 131 2133 c 0
 131 2251.96855287 218.048808725 2326 337 2326 c 0
 379.517037945 2326 420.929164076 2313.35858687 458.085917743 2291.72520033 c 1
 458.736195431 2206.4850408 l 1
 422.130589355 2224.55571289 387.745928939 2233 351 2233 c 0
 276.712052629 2233 216 2201.25674584 216 2119.74995314 c 0
 217.273370093 2068.83583592 248.147599329 2031.69419793 314.357124572 2007.13234643 c 0
 321.956495029 2004.59883414 329.412473629 2002.1953125 338.90234375 2002.1953125 c 0
 342.525307066 2002.1953125 346.665943846 2002.85058789 350.389056072 2003.66843962 c 0
 387.681704845 2010.82097857 428.366487333 2019.29154363 465 2026.64265583 c 1
 465 1940.75607864 l 1
 98 1852.38752827 l 1
 98 1934.02797758 l 1
 189.407554243 1954.76024145 l 1
 219.53582428 1961.59367277 l 1
 195.533051264 1981.04297421 l 2
EndSplineSet
EndChar

StartChar: uni06A1
Encoding: 1697 1697 80
GlifName: uni06A_1
Width: 1761
VWidth: 2920
GlyphClass: 2
Flags: HW
AnchorPoint: "Anchor-10" 637.853 1598.62 basechar 0
AnchorPoint: "Anchor-7" 620.182 -384.248 basechar 0
LayerCount: 2
Fore
SplineSet
1500.078125 388.642578125 m 2
 1442.265625 370.635742188 1377.22753906 361 1308 361 c 0
 1101.1875 361 1012 439.953125 1012 608 c 0
 1012 806.853515625 1129.10449219 981 1308 981 c 0
 1530.20117188 981 1633 724.709960938 1633 431.078125 c 0
 1631.09277344 66.8212890625 1498.09570312 0 1107 0 c 2
 837 0 l 2
 354.322265625 0 128 156.036132812 128 454 c 0
 128 528.747070312 143.16015625 602.15234375 168.837890625 669.712890625 c 1
 267.112304688 633.100585938 l 1
 250.876953125 581.171875 243 531.173828125 243 479 c 0
 243 232.038085938 472.366210938 120 833 120 c 2
 1128 120 l 2
 1375.28417969 120 1539 160.103515625 1539 360 c 2
 1539 400.765625 l 1
 1500.078125 388.642578125 l 2
1523.7578125 531.803710938 m 2
 1507.45507812 659.3515625 1461.98632812 865 1302 865 c 0
 1195.30078125 865 1112 755.602539062 1112 627 c 0
 1112 520.885742188 1195.80273438 471 1319 471 c 0
 1380.46679688 471 1441.3046875 481.595703125 1502.30566406 499.172851562 c 2
 1527.01855469 506.29296875 l 1
 1523.7578125 531.803710938 l 2
EndSplineSet
Substitution2: "'init' Initial Forms in Arabic lookup 13 subtable" uni06A1.init
Substitution2: "'medi' Medial Forms in Arabic lookup 11 subtable" uni06A1.medi
Substitution2: "'fina' Terminal Forms in Arabic lookup 9 subtable" uni06A1.fina
EndChar

StartChar: uni06A9
Encoding: 1705 1705 81
GlifName: uni06A_9
Width: 1845
VWidth: 2920
GlyphClass: 2
Flags: HW
AnchorPoint: "Anchor-7" 900.268 -256.468 basechar 0
AnchorPoint: "Anchor-10" 1173.88 1334.67 basechar 0
LayerCount: 2
Fore
SplineSet
267.112304688 633.100585938 m 1
 250.8671875 581.138671875 243 531.252929688 243 478.931640625 c 0
 244.119140625 232.771484375 459.916992188 120 830 120 c 2
 1010 120 l 2
 1294.88378906 120 1476 181.80078125 1476 342 c 0
 1476 420.057617188 1435.8515625 491.743164062 1362.51367188 560.890625 c 0
 1259.86621094 656.494140625 1167.62402344 736.731445312 1086.47851562 800.633789062 c 0
 1014.06933594 856.845703125 985 909.576171875 985 962 c 0
 985 1033.29785156 1020.88378906 1082.140625 1105.6328125 1114.94726562 c 2
 1755 1355.87109375 l 1
 1755 1248.88085938 l 1
 1099.58105469 1006.1328125 l 1
 1051.19921875 988.212890625 l 1
 1090.70410156 955.029296875 l 2
 1265.11621094 808.5234375 1396.80273438 688.663085938 1472.93066406 606.678710938 c 0
 1552.796875 519.206054688 1592 425.651367188 1592 325 c 0
 1592 112.481445312 1415.4375 0 1011 0 c 2
 840 0 l 2
 365.087890625 0 128 156.538085938 128 454 c 0
 128 528.747070312 143.16015625 602.15234375 168.837890625 669.712890625 c 1
 267.112304688 633.100585938 l 1
EndSplineSet
Substitution2: "'init' Initial Forms in Arabic lookup 13 subtable" uniFB90
Substitution2: "'medi' Medial Forms in Arabic lookup 11 subtable" uniFB91
Substitution2: "'fina' Terminal Forms in Arabic lookup 9 subtable" uniFB8F
EndChar

StartChar: uni06BA
Encoding: 1722 1722 83
GlifName: afii57514
Width: 1447
VWidth: 2920
GlyphClass: 2
Flags: HW
LayerCount: 2
Fore
SplineSet
1128.15039062 491.405273438 m 1
 1238.31835938 529.213867188 l 1
 1292.67285156 382.640625 1319 244.674804688 1319 110 c 0
 1319 -259.03125 1094.37207031 -450 721 -450 c 0
 317.341796875 -450 128 -271.096679688 128 96 c 0
 128 222.734375 153.965820312 354.143554688 204.693359375 485.83203125 c 1
 304.858398438 445.119140625 l 1
 262.118164062 324.66796875 240 212.059570312 240 101 c 0
 240 -186.8125 411.516601562 -337 728 -337 c 0
 1039.10546875 -337 1205.95214844 -171.325195312 1207 139.94921875 c 0
 1207 257.8671875 1179.44335938 375.321289062 1128.15039062 491.405273438 c 1
EndSplineSet
Substitution2: "'fina' Terminal Forms in Arabic lookup 9 subtable" uniFB9F
EndChar

StartChar: uni06F4
Encoding: 1780 1780 90
GlifName: uni06F_4
Width: 1193
VWidth: 2950
GlyphClass: 2
Flags: HW
LayerCount: 2
Fore
SplineSet
465 872 m 1
 438 890 l 2
 394.154296875 919.23046875 361 954 313 1093 c 2
 251 1271 l 1
 154.462890625 1235.65917969 l 1
 273.133789062 978.06640625 332 650.494140625 332 238 c 2
 332 0 l 1
 442 0 l 1
 442 235 l 2
 442 383.260742188 429.895507812 552.4921875 404.224609375 754.333007812 c 2
 396 819 l 1
 500.86328125 720.454101562 596.135742188 654 820 654 c 0
 899.75 654 968.868164062 671.00390625 1043.22363281 701.630859375 c 1
 1028.32617188 812.391601562 l 1
 957.999023438 786.669921875 882.344726562 767 799 767 c 0
 733.337890625 767 680.203125 775.44921875 636.174804688 790.7109375 c 0
 581.024414062 809.827148438 551.447265625 836.626953125 559.008789062 913.920898438 c 0
 571.334960938 1039.91308594 656.274414062 1166.40722656 807.034179688 1166.40722656 c 0
 881.626953125 1166.40722656 928.9765625 1149.66015625 963.389648438 1133.10644531 c 1
 999.865234375 1233.41308594 l 1
 969.592773438 1252.19140625 900.225585938 1287 796 1287 c 0
 590.581054688 1287 470.4140625 1092.99023438 465.973632812 911.73828125 c 2
 465 872 l 1
EndSplineSet
PairPos2: "'kern' Horizontal Kerning lookup 15-4" uni06F0 dx=-64 dy=0 dh=-64 dv=0 dx=0 dy=0 dh=0 dv=0
PairPos2: "'kern' Horizontal Kerning lookup 15-4" uni06F5 dx=-40 dy=0 dh=-40 dv=0 dx=0 dy=0 dh=0 dv=0
PairPos2: "'kern' Horizontal Kerning lookup 15-4" uni06F8 dx=-64 dy=0 dh=-64 dv=0 dx=0 dy=0 dh=0 dv=0
PairPos2: "'kern' Horizontal Kerning lookup 15-4" uni06F1 dx=-64 dy=0 dh=-64 dv=0 dx=0 dy=0 dh=0 dv=0
PairPos2: "'kern' Horizontal Kerning lookup 15-4" uni06F9 dx=-64 dy=0 dh=-64 dv=0 dx=0 dy=0 dh=0 dv=0
EndChar

StartChar: uni06F5
Encoding: 1781 1781 91
GlifName: uni06F_5
Width: 1246
VWidth: 2950
GlyphClass: 2
Flags: HW
LayerCount: 2
Fore
SplineSet
396 110 m 0
 506 110 551 191 586 367 c 1
 660 367 l 1
 693 187 744 110 854 110 c 0
 947 110 996 190 996 294 c 0
 996 509 891 757 639 1021 c 2
 614 1046 l 1
 593 1018 l 2
 363 714 250 478 250 294 c 0
 250 190 309 110 396 110 c 0
539 1278 m 1
 939 900 1100 583 1100 295 c 0
 1100 82 1012 0 854 0 c 0
 717.461954329 0 661.174804688 101.416992188 622 232 c 5
 585.161132812 99.1171875 543.27978968 0 397 0 c 0
 245 0 146 90 146 295 c 0
 146 543 314 828 515 1102 c 2
 531 1123 l 1
 512 1141 l 1
 470 1183 l 1
 539 1278 l 1
EndSplineSet
PairPos2: "'kern' Horizontal Kerning lookup 15-4" uni06F2 dx=-100 dy=0 dh=-100 dv=0 dx=0 dy=0 dh=0 dv=0
PairPos2: "'kern' Horizontal Kerning lookup 15-4" uni06F3 dx=-100 dy=0 dh=-100 dv=0 dx=0 dy=0 dh=0 dv=0
PairPos2: "'kern' Horizontal Kerning lookup 15-4" uni06F4 dx=-42 dy=0 dh=-42 dv=0 dx=0 dy=0 dh=0 dv=0
PairPos2: "'kern' Horizontal Kerning lookup 15-4" uni06F6 dx=-42 dy=0 dh=-42 dv=0 dx=0 dy=0 dh=0 dv=0
PairPos2: "'kern' Horizontal Kerning lookup 15-4" uni06F7 dx=-100 dy=0 dh=-100 dv=0 dx=0 dy=0 dh=0 dv=0
PairPos2: "'kern' Horizontal Kerning lookup 15-4" uni06F8 dx=-38 dy=0 dh=-38 dv=0 dx=0 dy=0 dh=0 dv=0
EndChar

StartChar: uni06F6
Encoding: 1782 1782 92
GlifName: uni06F_6
Width: 1009
VWidth: 2950
GlyphClass: 2
Flags: HW
LayerCount: 2
Fore
SplineSet
871.056640625 715.223632812 m 1
 594.622070312 579.977539062 418.190429688 326.512695312 268.1875 -28.0224609375 c 1
 166.772460938 17.484375 l 1
 264.786132812 253.416992188 369.875976562 423.981445312 502.858398438 565.453125 c 2
 542.037109375 607.130859375 l 1
 485.475585938 615.6640625 l 2
 262.729492188 649.268554688 163 771.6328125 163 899 c 0
 163 1089.484375 304.340820312 1280 528 1280 c 0
 584.337890625 1280 648.572265625 1273.69433594 721.834960938 1231.70898438 c 1
 682.872070312 1133.65332031 l 1
 618.083984375 1161.24023438 572.018554688 1163 535 1163 c 0
 393.307617188 1163 277 1027.57128906 277 906 c 0
 277 804.946289062 381.2734375 718.291015625 621.48828125 698.10546875 c 0
 628.291992188 697.533203125 642.478515625 702.263671875 646.322265625 704.826171875 c 0
 726.627929688 755.454101562 767.974609375 780.768554688 841.227539062 818.036132812 c 1
 871.056640625 715.223632812 l 1
EndSplineSet
PairPos2: "'kern' Horizontal Kerning lookup 15-4" uni06F7 dx=-40 dy=0 dh=-40 dv=0 dx=0 dy=0 dh=0 dv=0
PairPos2: "'kern' Horizontal Kerning lookup 15-4" uni06F8 dx=-40 dy=0 dh=-40 dv=0 dx=0 dy=0 dh=0 dv=0
PairPos2: "'kern' Horizontal Kerning lookup 15-4" uni06F9 dx=-30 dy=0 dh=-30 dv=0 dx=0 dy=0 dh=0 dv=0
EndChar

StartChar: uniFB8F
Encoding: 64399 64399 107
GlifName: uniF_B_8F_
Width: 1921
VWidth: 2920
GlyphClass: 2
Flags: HW
AnchorPoint: "Anchor-10" 1173.88 1334.67 basechar 0
AnchorPoint: "Anchor-7" 900.268 -256.468 basechar 0
LayerCount: 2
Fore
SplineSet
267.112304688 633.100585938 m 1
 250.8671875 581.138671875 243 531.252929688 243 478.931640625 c 0
 244.118164062 232.8671875 458.83203125 120 828 120 c 2
 1010 120 l 2
 1294.95800781 120 1476 181.90234375 1476 343 c 0
 1476 420.620117188 1433.67578125 492.912109375 1361.52441406 560.880859375 c 0
 1255.03710938 660.3359375 1163.62402344 740.744140625 1086.39648438 800.697265625 c 0
 1014.14746094 856.786132812 985 909.599609375 985 962 c 0
 985 1033.48828125 1021.10351562 1083.16992188 1104.55175781 1114.91699219 c 2
 1754 1355.87109375 l 1
 1754 1248.88085938 l 1
 1098.58105469 1006.1328125 l 1
 1050.296875 988.25 l 1
 1089.6640625 955.063476562 l 2
 1261.328125 810.345703125 1394.77050781 691.677734375 1472.97949219 606.625 c 0
 1523.41992188 552.44921875 1562.66503906 481.353515625 1594.73730469 391.938476562 c 0
 1655.54394531 219.82421875 1761.1953125 122.094726562 1909 120.022460938 c 1
 1939 120.022460938 l 1
 1939 0 l 5
 1909 0.015625 l 1
 1773.28417969 1.359375 1671.33886719 57.4423828125 1587.87695312 167.163085938 c 2
 1562.33789062 200.737304688 l 1
 1539.00585938 165.592773438 l 2
 1469.59667969 61.0390625 1304.06738281 0 1010 0 c 2
 838 0 l 2
 364.15234375 0 128 156.466796875 128 454 c 0
 128 528.747070312 143.16015625 602.15234375 168.837890625 669.712890625 c 1
 267.112304688 633.100585938 l 1
EndSplineSet
EndChar

StartChar: uniFB9F
Encoding: 64415 64415 115
GlifName: uniF_B_9F_
Width: 1513
VWidth: 2920
GlyphClass: 2
Flags: HW
AnchorPoint: "Anchor-10" 687.458 1334.61 basechar 0
AnchorPoint: "Anchor-7" 579.902 -832.086 basechar 0
LayerCount: 2
Fore
SplineSet
1207 69.94921875 m 0
 1207 187.81640625 1179.01757812 305.298828125 1127.85351562 421.338867188 c 1
 1236.51757812 459.026367188 l 1
 1299.546875 262.171875 l 2
 1329.0546875 171.376953125 1388.9453125 120.677734375 1501 120.00390625 c 1
 1531 120.00390625 l 1
 1531 0 l 1
 1501 0.037109375 l 1
 1392.06994803 1.50388593778 1367.06347656 36.337890625 1313.03808594 86.619140625 c 5
 1312.03613281 29.0947265625 l 2
 1306.69140625 -331.369140625 1084.74804688 -520 721 -520 c 0
 317.131835938 -520 127.99609375 -341.971679688 127.99609375 26.2255859375 c 0
 127.99609375 153.01953125 154.178710938 284.930664062 204.751953125 416.171875 c 1
 305.208007812 375.10546875 l 1
 262.09765625 254.887695312 240 141.875 240 31 c 0
 240 -257.961914062 411.837890625 -407 728 -407 c 0
 1038.97753906 -407 1205.94824219 -242.223632812 1207 69.94921875 c 0
EndSplineSet
EndChar

StartChar: uniFBE8
Encoding: 64488 64488 118
GlifName: uniF_B_E_8
Width: 672
VWidth: 2920
GlyphClass: 2
Flags: HW
AnchorPoint: "Anchor-10" 311.384 1321 basechar 0
AnchorPoint: "Anchor-7" 303.422 -255.625 basechar 0
LayerCount: 2
Fore
SplineSet
505.033203125 671.834960938 m 1
 530.416992188 576.455078125 544 471.32421875 544 386 c 0
 544 106.466796875 421.512695312 0 129 0 c 2
 -19 0 l 5
 -19 120 l 5
 129 120 l 2
 332.23828125 120 433 171.794921875 433 383 c 0
 433 456.395507812 421.24609375 555.987304688 401.807617188 646.028320312 c 1
 505.033203125 671.834960938 l 1
EndSplineSet
EndChar

StartChar: uniFBE9
Encoding: 64489 64489 119
GlifName: uniF_B_E_9
Width: 747
VWidth: 2920
GlyphClass: 2
Flags: HW
AnchorPoint: "Anchor-10" 315.665 1265.09 basechar 0
AnchorPoint: "Anchor-7" 380.537 -209.742 basechar 0
LayerCount: 2
Fore
SplineSet
736 0.046875 m 1
 612.625976562 1.869140625 544.110351562 44.841796875 499.369140625 127.306640625 c 2
 476.5078125 169.442382812 l 5
 448.60546875 130.461914062 l 2
 387.711914062 45.3896484375 288.556640625 0 126 0 c 2
 -19 0 l 1
 -19 120 l 1
 121 120 l 2
 325.866210938 120 411.892578125 179.720703125 413 356.90625 c 0
 413 413.596679688 410.127929688 477.122070312 406.755859375 532.478515625 c 1
 511.102539062 544.567382812 l 1
 525.065429688 329.020507812 l 2
 533.706054688 198.334960938 606.3046875 123.5078125 736 120.103515625 c 1
 766 120.103515625 l 1
 766 0.046875 l 1
 736 0.046875 l 1
EndSplineSet
EndChar

StartChar: uniFE73
Encoding: 65139 65139 127
GlifName: uniF_E_73
Width: 672
VWidth: 2920
GlyphClass: 2
Flags: HW
AnchorPoint: "Anchor-10" 342.943 980.47 basechar 0
AnchorPoint: "Anchor-7" 416.943 -238.304 basechar 0
LayerCount: 2
Fore
SplineSet
268.372070312 388.69140625 m 1
 271.034179688 208.434570312 400.517578125 120.342773438 618.00390625 120.342773438 c 2
 691.674804688 120.342773438 l 5
 691.674804688 1.5537109375 l 5
 608.036132812 1.5537109375 l 2
 289.373046875 1.8388671875 144.669921875 129.434570312 141.58984375 388.69140625 c 1
 268.372070312 388.69140625 l 1
EndSplineSet
EndChar

StartChar: uniFE8E
Encoding: 65166 65166 153
GlifName: uniF_E_8E_
Width: 527
VWidth: 2920
GlyphClass: 2
Flags: HW
AnchorPoint: "Anchor-10" 230.697 1491.11 basechar 0
AnchorPoint: "Anchor-7" 292.078 -271.903 basechar 0
LayerCount: 2
Fore
SplineSet
516 0.0244140625 m 1
 290.182617188 2.021484375 178 101.364257812 178 375 c 2
 178 1326 l 1
 287 1326 l 1
 287 374 l 2
 287 194.326171875 373.919921875 122.037109375 516 120.03515625 c 1
 546 120.03515625 l 1
 546 0.0244140625 l 5
 516 0.0244140625 l 1
EndSplineSet
EndChar

StartChar: uniFEA2
Encoding: 65186 65186 173
GlifName: uniF_E_A_2
Width: 1378
VWidth: 2920
GlyphClass: 2
Flags: HW
AnchorPoint: "Anchor-7" 690.833 -860.619 basechar 0
AnchorPoint: "Anchor-10" 601.478 1146.07 basechar 0
LayerCount: 2
Fore
SplineSet
1213.81542969 -593.733398438 m 1
 1088.32421875 -649.471679688 949.0234375 -677 784 -677 c 0
 385.791992188 -677 129 -519.504882812 129 -181 c 0
 129 121.1875 367.921875 384.375976562 842.559570312 490.725585938 c 2
 937.0390625 511.895507812 l 1
 847.141601562 547.854492188 l 2
 822.075195312 557.880859375 812.569335938 561.680664062 756.26953125 584.802734375 c 0
 621.094726562 638.873046875 536.266601562 676 477 676 c 0
 387.983398438 676 305.051757812 619.294921875 252.212890625 550.28125 c 2
 240.2890625 534.823242188 l 1
 140.002929688 584.634765625 l 1
 220.159179688 713.901367188 340.44921875 794 478 794 c 0
 552.979492188 794 650.915039062 757.521484375 767.897460938 701.012695312 c 0
 958.622070312 607.954101562 1083.7734375 562.23828125 1195.90625 550.443359375 c 1
 1192.98730469 511.8671875 1189.77050781 473.47265625 1186.953125 435.944335938 c 1
 1125.12988281 430.856445312 1069.79589844 423.787109375 1016.09863281 416.745117188 c 2
 989.860351562 413.303710938 l 1
 990 386.840820312 l 2
 991.09375 180.116210938 1100.02050781 120 1300 120 c 2
 1397 120 l 5
 1397 0 l 5
 1303 0 l 2
 1016.27636719 0 900.943359375 81.6640625 900 357.102539062 c 2
 899.865234375 396.489257812 l 1
 861.9296875 385.89453125 l 2
 457.279296875 272.875 235 65.8212890625 235 -165 c 0
 235 -435.467773438 437.3046875 -566 798 -566 c 0
 934.013671875 -566 1066.953125 -536.872070312 1191.15917969 -483.688476562 c 1
 1213.81542969 -593.733398438 l 1
EndSplineSet
EndChar

StartChar: uniFEA3
Encoding: 65187 65187 174
GlifName: uniF_E_A_3
Width: 1334
VWidth: 2950
GlyphClass: 2
Flags: HW
AnchorPoint: "Anchor-10" 591.825 1100.07 basechar 0
AnchorPoint: "Anchor-7" 553.524 -266.745 basechar 0
LayerCount: 2
Fore
SplineSet
-19 0 m 1
 -19 120 l 1
 163 120 l 2
 259.762695312 120 377.352539062 132.828125 463.564453125 161.565429688 c 0
 577.225585938 199.796875 697.77734375 263.350585938 883.859375 359.392578125 c 2
 961.958007812 400.4453125 l 1
 1026.11523438 434.168945312 l 1
 956.891601562 455.65234375 l 2
 932.607421875 463.188476562 901.41015625 479.747070312 774.249023438 530.811523438 c 0
 639.329101562 585.779296875 553.873046875 622 495 622 c 0
 405.983398438 622 323.051757812 565.294921875 270.212890625 496.28125 c 2
 258.2890625 480.823242188 l 1
 158.002929688 530.634765625 l 1
 238.159179688 659.901367188 358.44921875 740 496 740 c 0
 570.979492188 740 668.915039062 703.521484375 785.897460938 647.012695312 c 0
 977.564453125 553.494140625 1102.68847656 507.846679688 1215.671875 496.259765625 c 1
 1214.30273438 379.872070312 l 1
 1130.62207031 364.216796875 1031.41015625 318.162109375 847.004882812 220.536132812 c 0
 701.084960938 143.578125 591.990234375 87.2236328125 490.08984375 51.3154296875 c 0
 394.764648438 17.9521484375 261.916992188 0 151 0 c 2
 -19 0 l 1
EndSplineSet
EndChar

StartChar: uniFEA4
Encoding: 65188 65188 175
GlifName: uniF_E_A_4
Width: 1351
VWidth: 2950
GlyphClass: 2
Flags: HW
AnchorPoint: "Anchor-10" 591.825 1100.07 basechar 0
AnchorPoint: "Anchor-7" 553.524 -266.745 basechar 0
LayerCount: 2
Fore
SplineSet
1214.30664062 380.279296875 m 1
 1162.51464844 372.108398438 1101.98632812 355.2109375 1028.97558594 320.025390625 c 2
 1011.24414062 311.48046875 l 1
 1012.0234375 291.8125 l 2
 1017.09179688 163.837890625 1134.48046875 120 1317 120 c 2
 1370 120 l 5
 1370 0 l 5
 1313 0 l 2
 1072.83007812 0 962.25390625 68.1826171875 942.776367188 226.659179688 c 2
 937.451171875 269.985351562 l 1
 898.911132812 249.486328125 l 2
 758.067382812 174.568359375 599.094726562 89.90234375 490.0390625 51.2978515625 c 0
 394.826171875 17.9736328125 261.88671875 0 151 0 c 2
 -19 0 l 1
 -19 120 l 1
 163 120 l 2
 259.762695312 120 377.352539062 132.828125 463.564453125 161.565429688 c 0
 577.225585938 199.796875 697.77734375 263.350585938 883.859375 359.392578125 c 2
 961.958007812 400.4453125 l 1
 1026.11523438 434.168945312 l 1
 956.891601562 455.65234375 l 2
 932.607421875 463.188476562 901.41015625 479.747070312 774.249023438 530.811523438 c 0
 639.329101562 585.779296875 553.873046875 622 495 622 c 0
 405.983398438 622 323.051757812 565.294921875 270.212890625 496.28125 c 2
 258.2890625 480.823242188 l 1
 158.002929688 530.634765625 l 1
 238.159179688 659.901367188 358.44921875 740 496 740 c 0
 570.979492188 740 668.915039062 703.521484375 785.897460938 647.012695312 c 0
 977.564453125 553.494140625 1102.68847656 507.846679688 1215.671875 496.259765625 c 1
 1214.30664062 380.279296875 l 1
EndSplineSet
EndChar

StartChar: uniFEAA
Encoding: 65194 65194 181
GlifName: uniF_E_A_A_
Width: 1045
VWidth: 2920
GlyphClass: 2
Flags: HW
AnchorPoint: "Anchor-7" 401.24 -271.316 basechar 0
AnchorPoint: "Anchor-10" 506.848 1123.53 basechar 0
LayerCount: 2
Fore
SplineSet
128 141.709960938 m 1
 193.532226562 127.559570312 248.517578125 121 307 121 c 0
 534.256835938 121 684.006835938 174.8671875 684.006835938 316.581054688 c 0
 684.006835938 362.280273438 652.352539062 443.401367188 590.439453125 588.541992188 c 2
 481.625 843.942382812 l 1
 587.665039062 892.784179688 l 1
 767.20703125 438.321289062 l 2
 844.360351562 241.479492188 926.720703125 120 1033 120 c 0
 1034 120 1063 120 1064 120 c 6
 1064 0 l 6
 1063 0 1034 0 1033 0 c 0
 931.799804688 0 856.135742188 48.76953125 797.044921875 147.849609375 c 2
 775.500976562 183.973632812 l 1
 748.360351562 151.840820312 l 2
 665.880859375 54.189453125 531.966796875 1 322 1 c 0
 243.759765625 1 181.942382812 8.1513671875 128 19.537109375 c 1
 128 141.709960938 l 1
EndSplineSet
EndChar

StartChar: uniFEAE
Encoding: 65198 65198 185
GlifName: uniF_E_A_E_
Width: 860
VWidth: 2112
GlyphClass: 2
Flags: HW
AnchorPoint: "Anchor-7" 322.969 -669.998 basechar 0
AnchorPoint: "Anchor-10" 493.256 818.2 basechar 0
LayerCount: 2
Fore
SplineSet
545 99.888671875 m 0
 545 188.686523438 521.698242188 307.353515625 477.262695312 421.249023438 c 1
 580.6328125 458.612304688 l 1
 632.525390625 296.236328125 l 2
 667.877929688 185.895507812 732.896484375 120 841 120 c 2
 879 120 l 1
 879 0 l 1
 849 0.00390625 l 2
 751.760605325 0.016567629515 704.928710938 28.95703125 652.529296875 94.498046875 c 1
 647.018554688 28.0810546875 l 2
 626.479492188 -256.690429688 436.30078125 -448.098632812 69.0458984375 -523.481445312 c 1
 30.712890625 -425.794921875 l 1
 364.4453125 -353.15625 542.936523438 -177.7578125 545 99.888671875 c 0
EndSplineSet
PairPos2: "'kern' Horizontal Kerning lookup 15-1" uniFEE7 dx=-178 dy=0 dh=-178 dv=0 dx=0 dy=0 dh=0 dv=0
PairPos2: "'kern' Horizontal Kerning lookup 15-2" uniFE8B dx=-178 dy=0 dh=-178 dv=0 dx=0 dy=0 dh=0 dv=0
PairPos2: "'kern' Horizontal Kerning lookup 15-2" uni0640 dx=-178 dy=0 dh=-178 dv=0 dx=0 dy=0 dh=0 dv=0
PairPos2: "'kern' Horizontal Kerning lookup 15-2" uni067E dx=-178 dy=0 dh=-178 dv=0 dx=0 dy=0 dh=0 dv=0
PairPos2: "'kern' Horizontal Kerning lookup 15-2" uni06AF dx=-226 dy=0 dh=-226 dv=0 dx=0 dy=0 dh=0 dv=0
PairPos2: "'kern' Horizontal Kerning lookup 15-2" uniFB92 dx=-226 dy=0 dh=-226 dv=0 dx=0 dy=0 dh=0 dv=0
PairPos2: "'kern' Horizontal Kerning lookup 15-2" uniFB94 dx=-226 dy=0 dh=-226 dv=0 dx=0 dy=0 dh=0 dv=0
PairPos2: "'kern' Horizontal Kerning lookup 15-2" uni0621 dx=-178 dy=0 dh=-178 dv=0 dx=0 dy=0 dh=0 dv=0
PairPos2: "'kern' Horizontal Kerning lookup 15-2" uni0622 dx=-143 dy=0 dh=-143 dv=0 dx=0 dy=0 dh=0 dv=0
PairPos2: "'kern' Horizontal Kerning lookup 15-2" uni0623 dx=-143 dy=0 dh=-143 dv=0 dx=0 dy=0 dh=0 dv=0
PairPos2: "'kern' Horizontal Kerning lookup 15-2" uni0627 dx=-143 dy=0 dh=-143 dv=0 dx=0 dy=0 dh=0 dv=0
PairPos2: "'kern' Horizontal Kerning lookup 15-2" uni0628 dx=-178 dy=0 dh=-178 dv=0 dx=0 dy=0 dh=0 dv=0
PairPos2: "'kern' Horizontal Kerning lookup 15-2" uni0629 dx=-178 dy=0 dh=-178 dv=0 dx=0 dy=0 dh=0 dv=0
PairPos2: "'kern' Horizontal Kerning lookup 15-2" uni062A dx=-178 dy=0 dh=-178 dv=0 dx=0 dy=0 dh=0 dv=0
PairPos2: "'kern' Horizontal Kerning lookup 15-2" uniFE97 dx=-178 dy=0 dh=-178 dv=0 dx=0 dy=0 dh=0 dv=0
PairPos2: "'kern' Horizontal Kerning lookup 15-2" uni062B dx=-178 dy=0 dh=-178 dv=0 dx=0 dy=0 dh=0 dv=0
PairPos2: "'kern' Horizontal Kerning lookup 15-2" uniFE9B dx=-178 dy=0 dh=-178 dv=0 dx=0 dy=0 dh=0 dv=0
PairPos2: "'kern' Horizontal Kerning lookup 15-2" uniFE9F dx=-178 dy=0 dh=-178 dv=0 dx=0 dy=0 dh=0 dv=0
PairPos2: "'kern' Horizontal Kerning lookup 15-2" uniFEA3 dx=-178 dy=0 dh=-178 dv=0 dx=0 dy=0 dh=0 dv=0
PairPos2: "'kern' Horizontal Kerning lookup 15-2" uniFEA7 dx=-178 dy=0 dh=-178 dv=0 dx=0 dy=0 dh=0 dv=0
PairPos2: "'kern' Horizontal Kerning lookup 15-2" uni062F dx=-178 dy=0 dh=-178 dv=0 dx=0 dy=0 dh=0 dv=0
PairPos2: "'kern' Horizontal Kerning lookup 15-2" uni0630 dx=-178 dy=0 dh=-178 dv=0 dx=0 dy=0 dh=0 dv=0
PairPos2: "'kern' Horizontal Kerning lookup 15-2" uni0633 dx=-178 dy=0 dh=-178 dv=0 dx=0 dy=0 dh=0 dv=0
PairPos2: "'kern' Horizontal Kerning lookup 15-2" uniFEB3 dx=-178 dy=0 dh=-178 dv=0 dx=0 dy=0 dh=0 dv=0
PairPos2: "'kern' Horizontal Kerning lookup 15-2" uni0634 dx=-178 dy=0 dh=-178 dv=0 dx=0 dy=0 dh=0 dv=0
PairPos2: "'kern' Horizontal Kerning lookup 15-2" uniFEB7 dx=-178 dy=0 dh=-178 dv=0 dx=0 dy=0 dh=0 dv=0
PairPos2: "'kern' Horizontal Kerning lookup 15-2" uni0635 dx=-178 dy=0 dh=-178 dv=0 dx=0 dy=0 dh=0 dv=0
PairPos2: "'kern' Horizontal Kerning lookup 15-2" uniFEBB dx=-178 dy=0 dh=-178 dv=0 dx=0 dy=0 dh=0 dv=0
PairPos2: "'kern' Horizontal Kerning lookup 15-2" uni0636 dx=-178 dy=0 dh=-178 dv=0 dx=0 dy=0 dh=0 dv=0
PairPos2: "'kern' Horizontal Kerning lookup 15-2" uniFEBF dx=-178 dy=0 dh=-178 dv=0 dx=0 dy=0 dh=0 dv=0
PairPos2: "'kern' Horizontal Kerning lookup 15-2" uni0637 dx=-178 dy=0 dh=-178 dv=0 dx=0 dy=0 dh=0 dv=0
PairPos2: "'kern' Horizontal Kerning lookup 15-2" uniFEC3 dx=-178 dy=0 dh=-178 dv=0 dx=0 dy=0 dh=0 dv=0
PairPos2: "'kern' Horizontal Kerning lookup 15-2" uni0638 dx=-178 dy=0 dh=-178 dv=0 dx=0 dy=0 dh=0 dv=0
PairPos2: "'kern' Horizontal Kerning lookup 15-2" uniFEC7 dx=-178 dy=0 dh=-178 dv=0 dx=0 dy=0 dh=0 dv=0
PairPos2: "'kern' Horizontal Kerning lookup 15-2" uniFECB dx=-178 dy=0 dh=-178 dv=0 dx=0 dy=0 dh=0 dv=0
PairPos2: "'kern' Horizontal Kerning lookup 15-2" uniFECF dx=-178 dy=0 dh=-178 dv=0 dx=0 dy=0 dh=0 dv=0
PairPos2: "'kern' Horizontal Kerning lookup 15-2" uni0641 dx=-178 dy=0 dh=-178 dv=0 dx=0 dy=0 dh=0 dv=0
PairPos2: "'kern' Horizontal Kerning lookup 15-2" uniFED3 dx=-178 dy=0 dh=-178 dv=0 dx=0 dy=0 dh=0 dv=0
PairPos2: "'kern' Horizontal Kerning lookup 15-2" uni0642 dx=-60 dy=0 dh=-60 dv=0 dx=0 dy=0 dh=0 dv=0
PairPos2: "'kern' Horizontal Kerning lookup 15-2" uniFED7 dx=-178 dy=0 dh=-178 dv=0 dx=0 dy=0 dh=0 dv=0
PairPos2: "'kern' Horizontal Kerning lookup 15-2" uni0643 dx=-143 dy=0 dh=-143 dv=0 dx=0 dy=0 dh=0 dv=0
PairPos2: "'kern' Horizontal Kerning lookup 15-2" uniFEDB dx=-226 dy=0 dh=-226 dv=0 dx=0 dy=0 dh=0 dv=0
PairPos2: "'kern' Horizontal Kerning lookup 15-2" uni0644 dx=-60 dy=0 dh=-60 dv=0 dx=0 dy=0 dh=0 dv=0
PairPos2: "'kern' Horizontal Kerning lookup 15-2" uniFEDF dx=-143 dy=0 dh=-143 dv=0 dx=0 dy=0 dh=0 dv=0
PairPos2: "'kern' Horizontal Kerning lookup 15-2" uniFEFB dx=-143 dy=0 dh=-143 dv=0 dx=0 dy=0 dh=0 dv=0
PairPos2: "'kern' Horizontal Kerning lookup 15-2" uni0645 dx=-178 dy=0 dh=-178 dv=0 dx=0 dy=0 dh=0 dv=0
PairPos2: "'kern' Horizontal Kerning lookup 15-2" uniFEE3 dx=-178 dy=0 dh=-178 dv=0 dx=0 dy=0 dh=0 dv=0
PairPos2: "'kern' Horizontal Kerning lookup 15-2" uni0646 dx=-60 dy=0 dh=-60 dv=0 dx=0 dy=0 dh=0 dv=0
PairPos2: "'kern' Horizontal Kerning lookup 15-2" uni0647 dx=-178 dy=0 dh=-178 dv=0 dx=0 dy=0 dh=0 dv=0
PairPos2: "'kern' Horizontal Kerning lookup 15-2" uniFEEB dx=-178 dy=0 dh=-178 dv=0 dx=0 dy=0 dh=0 dv=0
PairPos2: "'kern' Horizontal Kerning lookup 15-2" uni0649 dx=-60 dy=0 dh=-60 dv=0 dx=0 dy=0 dh=0 dv=0
PairPos2: "'kern' Horizontal Kerning lookup 15-2" uni0626 dx=-60 dy=0 dh=-60 dv=0 dx=0 dy=0 dh=0 dv=0
PairPos2: "'kern' Horizontal Kerning lookup 15-2" uni064A dx=-60 dy=0 dh=-60 dv=0 dx=0 dy=0 dh=0 dv=0
PairPos2: "'kern' Horizontal Kerning lookup 15-2" uni06A9 dx=-226 dy=0 dh=-226 dv=0 dx=0 dy=0 dh=0 dv=0
PairPos2: "'kern' Horizontal Kerning lookup 15-2" uniFB8E dx=-226 dy=0 dh=-226 dv=0 dx=0 dy=0 dh=0 dv=0
PairPos2: "'kern' Horizontal Kerning lookup 15-2" uniFB90 dx=-226 dy=0 dh=-226 dv=0 dx=0 dy=0 dh=0 dv=0
PairPos2: "'kern' Horizontal Kerning lookup 15-2" uniFBFE dx=30 dy=0 dh=30 dv=0 dx=0 dy=0 dh=0 dv=0
PairPos2: "'kern' Horizontal Kerning lookup 15-2" uni0631 dx=-30 dy=0 dh=-30 dv=0 dx=0 dy=0 dh=0 dv=0
PairPos2: "'kern' Horizontal Kerning lookup 15-2" uni0632 dx=-30 dy=0 dh=-30 dv=0 dx=0 dy=0 dh=0 dv=0
PairPos2: "'kern' Horizontal Kerning lookup 15-2" uni0624 dx=-30 dy=0 dh=-30 dv=0 dx=0 dy=0 dh=0 dv=0
PairPos2: "'kern' Horizontal Kerning lookup 15-2" uni0648 dx=-30 dy=0 dh=-30 dv=0 dx=0 dy=0 dh=0 dv=0
PairPos2: "'kern' Horizontal Kerning lookup 15-2" uni0698 dx=-40 dy=0 dh=-40 dv=0 dx=0 dy=0 dh=0 dv=0
PairPos2: "'kern' Horizontal Kerning lookup 15-5" uni06C0 dx=-178 dy=0 dh=-178 dv=0 dx=0 dy=0 dh=0 dv=0
EndChar

StartChar: uniFEB2
Encoding: 65202 65202 189
GlifName: uniF_E_B_2
Width: 2553
GlyphClass: 2
Flags: HW
AnchorPoint: "Anchor-7" 710.902 -746.086 basechar 0
AnchorPoint: "Anchor-10" 1770.53 837.1 basechar 0
LayerCount: 2
Fore
SplineSet
1531 0 m 0
 1456 0 1404 18 1361 52 c 2
 1313 89 l 1
 1312 28 l 2
 1309 -156 1256 -290 1154 -381 c 0
 1051 -473 908 -520 721 -520 c 0
 318 -520 128 -342 128 26 c 0
 128 153 154 284 205 416 c 1
 305 375 l 1
 261 252 240 139 240 31 c 0
 240 -258 411 -407 728 -407 c 0
 1041 -407 1206 -242 1207 70 c 0
 1207 186 1180 304 1128 421 c 1
 1237 459 l 1
 1286 305 l 2
 1324 187 1405 121 1533 120 c 0
 1683 120 1748 214 1748 359 c 0
 1748 389 1745 440 1740 511 c 1
 1845 523 l 1
 1859 329 l 2
 1866 220 1923 120 2048 120 c 0
 2164 120 2217 215 2217 357 c 0
 2217 398 2214 458 2209 532 c 1
 2314 544 l 1
 2328 329 l 2
 2337 196 2413 121 2541 120 c 1
 2571 120 l 1
 2571 0 l 1
 2541 0 l 1
 2369.39313655 1.4066136348 2330.1875 58.8251953125 2287 169 c 1
 2228.63867188 59.572265625 2193.00901573 0 2049 0 c 0
 1944 0 1875 39 1833 124 c 2
 1811 169 l 1
 1782 129 l 2
 1718 41 1637 0 1531 0 c 0
EndSplineSet
EndChar

StartChar: uniFEB3
Encoding: 65203 65203 190
GlifName: uniF_E_B_3
Width: 1562
GlyphClass: 2
Flags: HW
AnchorPoint: "Anchor-7" 764.902 -266.086 basechar 0
AnchorPoint: "Anchor-10" 852.53 873.1 basechar 0
LayerCount: 2
Fore
SplineSet
1153 120 m 0
 1269 120 1322 221 1322 372 c 0
 1322 440 1309 523 1285 615 c 1
 1396 644 l 1
 1422 554 1434 469 1434 387 c 0
 1434 163 1358 1 1154 0 c 0
 1048 0 980 39 938 124 c 2
 916 169 l 1
 887 129 l 2
 823 41 742 0 636 0 c 0
 470.071901521 0 424.907773861 58.7869993901 375 169 c 1
 346 119 l 2
 297 35 203 0 49 0 c 2
 -19 0 l 1
 -19 120 l 1
 51 120 l 2
 221 120 323 183 323 359 c 0
 323 390 320 442 315 511 c 1
 420 523 l 1
 434 329 l 2
 443 213 510 120 638 120 c 0
 788 120 853 214 853 359 c 0
 853 389 850 440 845 511 c 1
 950 523 l 1
 964 329 l 2
 971 220 1028 120 1153 120 c 0
EndSplineSet
EndChar

StartChar: uniFEB4
Encoding: 65204 65204 191
GlifName: uniF_E_B_4
Width: 1658
GlyphClass: 2
Flags: HW
AnchorPoint: "Anchor-10" 852.53 873.1 basechar 0
AnchorPoint: "Anchor-7" 764.902 -266.086 basechar 0
LayerCount: 2
Fore
SplineSet
346 118 m 2
 297 34 203 0 49 0 c 2
 -19 0 l 1
 -19 120 l 1
 51 120 l 2
 221 120 323 183 323 359 c 0
 323 390 320 443 315 511 c 1
 420 523 l 1
 434 329 l 2
 443 213 509 120 638 120 c 0
 788 120 853 214 853 359 c 0
 853 389 850 440 845 511 c 1
 950 523 l 1
 964 329 l 2
 971 220 1028 120 1153 120 c 0
 1269 120 1322 215 1322 357 c 0
 1322 398 1319 458 1314 532 c 1
 1419 544 l 1
 1433 329 l 2
 1442 196 1518 121 1646 120 c 1
 1676 120 l 1
 1676 0 l 1
 1646 0 l 1
 1474.39313655 1.4066136348 1435.1875 58.8251953125 1392 169 c 1
 1333.63867188 59.572265625 1298.00901573 0 1154 0 c 0
 1049 0 980 39 938 124 c 2
 916 169 l 1
 887 129 l 2
 823 41 741 0 636 0 c 0
 470.324250551 1.31488690039 423.983680544 56.3426630698 376 169 c 1
 346 118 l 2
EndSplineSet
EndChar

StartChar: uniFEBA
Encoding: 65210 65210 197
GlifName: uniF_E_B_A_
Width: 2610
VWidth: 2920
GlyphClass: 2
Flags: HW
AnchorPoint: "Anchor-10" 2052.53 1098.1 basechar 0
AnchorPoint: "Anchor-7" 710.902 -746.086 basechar 0
LayerCount: 2
Fore
SplineSet
1753.1015625 121 m 2
 2109.99902344 121 2329 194.146484375 2329 383 c 0
 2329 507.88671875 2236.00390625 605 2104 605 c 0
 1930.63085938 605 1758.19042969 443.884765625 1579.76171875 166.217773438 c 2
 1549.82226562 119.626953125 l 1
 1605.203125 120.000976562 l 1
 1753.1015625 121 l 2
1207 69.94921875 m 0
 1207 187.8671875 1179.44335938 305.321289062 1128.15039062 421.405273438 c 1
 1236.82714844 458.702148438 l 1
 1286.41210938 304.904296875 l 2
 1313.64746094 218.155273438 1351.77539062 156.614257812 1415.53515625 149.201171875 c 2
 1434.88574219 146.950195312 l 1
 1444.81347656 163.712890625 l 2
 1671.8828125 547.142578125 1890.45996094 727 2096 727 c 0
 2305.91699219 727 2447 585.266601562 2447 392 c 0
 2447 318.454101562 2414.90429688 241.828125 2371.90722656 183.875 c 2
 2345.96386719 148.908203125 l 1
 2387.87792969 137.120117188 l 2
 2424.72753906 126.756835938 2486.52246094 120.13671875 2598 120 c 1
 2628 120 l 1
 2628 0 l 1
 2598 0.00390625 l 1
 2442.5625 0.5556640625 2341.21289062 34.5771484375 2277.97949219 86.2333984375 c 2
 2262.26074219 99.07421875 l 1
 2244.49414062 89.259765625 l 2
 2146.7578125 35.2724609375 1979.08496094 0 1757 0 c 2
 1706 0 l 2
 1539.17578125 0 1425.18457031 20.3115234375 1354.99316406 54.0400390625 c 2
 1312.61132812 74.4052734375 l 1
 1312.00292969 27.388671875 l 2
 1307.22265625 -341.633789062 1083.84765625 -520 721 -520 c 0
 317.294921875 -520 128 -342.08984375 128 26 c 0
 128 152.734375 153.965820312 284.143554688 204.693359375 415.83203125 c 1
 304.858398438 375.119140625 l 1
 262.118164062 254.66796875 240 142.059570312 240 31 c 0
 240 -257.825195312 411.58203125 -407 728 -407 c 0
 1039.04296875 -407 1205.95214844 -242.264648438 1207 69.94921875 c 0
EndSplineSet
EndChar

StartChar: uniFEBB
Encoding: 65211 65211 198
GlifName: uniF_E_B_B_
Width: 1654
VWidth: 2920
GlyphClass: 2
Flags: HW
AnchorPoint: "Anchor-10" 1112.53 1098.1 basechar 0
AnchorPoint: "Anchor-7" 679.209 -272.348 basechar 0
LayerCount: 2
Fore
SplineSet
832.1015625 121 m 2
 1188.99902344 121 1408 194.146484375 1408 383 c 0
 1408 507.88671875 1315.00390625 605 1183 605 c 0
 1009.63085938 605 837.190429688 443.884765625 658.76171875 166.217773438 c 2
 628.822265625 119.626953125 l 1
 684.203125 120.000976562 l 1
 832.1015625 121 l 2
523.795898438 163.68359375 m 2
 750.891601562 546.161132812 969.513671875 727 1175 727 c 0
 1384.91699219 727 1526 585.221679688 1526 392.053710938 c 0
 1525.09277344 137.208984375 1313.98144531 0 836 0 c 2
 785 0 l 2
 535.456054688 0 404.836914062 49.328125 353.46875 131.853515625 c 6
 330.178710938 169.26953125 l 5
 303.911132812 133.880859375 l 6
 236.212890625 42.67578125 169.274414062 0 20 0 c 2
 -18.8330078125 0 l 1
 -18.166015625 120 l 1
 20 120 l 2
 209.908203125 120 273 202.969726562 273 358 c 0
 273 410.373046875 269.276367188 476.631835938 266.389648438 531.60546875 c 1
 371.368164062 544.408203125 l 1
 387.084960938 328.747070312 l 2
 394.244140625 236.69921875 421.434570312 168.275390625 490.306640625 150.002929688 c 2
 512.220703125 144.189453125 l 1
 523.795898438 163.68359375 l 2
EndSplineSet
EndChar

StartChar: uniFEBC
Encoding: 65212 65212 199
GlifName: uniF_E_B_C_
Width: 1689
VWidth: 2920
GlyphClass: 2
Flags: HW
AnchorPoint: "Anchor-10" 1112.53 1098.1 basechar 0
AnchorPoint: "Anchor-7" 679.209 -272.348 basechar 0
LayerCount: 2
Fore
SplineSet
832.1015625 121 m 2
 1188.99902344 121 1408 194.146484375 1408 383 c 0
 1408 507.88671875 1315.00390625 605 1183 605 c 0
 1009.63085938 605 837.190429688 443.884765625 658.76171875 166.217773438 c 2
 628.822265625 119.626953125 l 1
 684.203125 120.000976562 l 1
 832.1015625 121 l 2
523.783203125 163.6640625 m 2
 751.868164062 547.124023438 970.455078125 727 1176 727 c 0
 1386.67773438 727 1526 584.586914062 1526 390 c 0
 1526 317.806640625 1493.10742188 242.021484375 1450.72070312 183.622070312 c 2
 1428.27832031 152.700195312 l 1
 1491.77245306 126.724605506 1529.3620374 120.180184416 1677 120 c 1
 1707 120 l 1
 1707 0 l 1
 1677 0.001953125 l 1
 1521.3984375 0.37109375 1420.38867188 34.43359375 1356.97949219 86.2333984375 c 2
 1341.26074219 99.07421875 l 1
 1323.49414062 89.259765625 l 2
 1225.7578125 35.2724609375 1058.08496094 0 836 0 c 2
 785 0 l 2
 538.658203125 0 406.607421875 50.19921875 353.235351562 133.22265625 c 2
 329.772460938 169.721679688 l 5
 303.911132812 134.880859375 l 2
 236.212890625 43.67578125 169.274414062 0 20 0 c 2
 11 0 l 1
 11 120 l 1
 19 120 l 2
 209.883789062 120 273 203.845703125 273 357 c 0
 273 410.971679688 269.255859375 477.2421875 266.392578125 531.606445312 c 1
 371.368164062 544.408203125 l 1
 387.084960938 328.747070312 l 2
 394.244140625 236.69921875 421.434570312 168.275390625 490.306640625 150.002929688 c 2
 512.203125 144.194335938 l 1
 523.783203125 163.6640625 l 2
EndSplineSet
EndChar

StartChar: uniFEC2
Encoding: 65218 65218 205
GlifName: uniF_E_C_2
Width: 1510
VWidth: 2920
GlyphClass: 2
Flags: HW
AnchorPoint: "Anchor-7" 636.602 -268.453 basechar 0
AnchorPoint: "Anchor-10" 470.36 1486.78 basechar 0
LayerCount: 2
Fore
SplineSet
649.1015625 122 m 2
 1005.99902344 122 1225 195.146484375 1225 384 c 0
 1225 508.672851562 1133.15136719 606 1001 606 c 0
 827.673828125 606 654.232421875 444.950195312 475.76171875 167.217773438 c 2
 445.822265625 120.626953125 l 1
 501.203125 121.000976562 l 1
 649.1015625 122 l 2
1498 120 m 1
 1528 120 l 1
 1528 0 l 5
 1498 0.0029296875 l 1
 1326.46582031 0.6083984375 1240.30371094 36.6142578125 1179.82617188 85.357421875 c 2
 1164.56738281 97.6552734375 l 1
 1147.17578125 88.625 l 2
 1050.29492188 38.3212890625 866.591796875 0 653 0 c 2
 128 0 l 1
 128 120 l 1
 320 120 l 1
 336.763671875 120 l 1
 345.549804688 134.27734375 l 2
 369.166992188 172.655273438 395.194335938 211.689453125 418.665039062 250.465820312 c 2
 423 257.627929688 l 1
 423 266 l 1
 423 1326 l 1
 532 1326 l 1
 532 506 l 1
 532 420.880859375 l 1
 585.370117188 487.189453125 l 2
 714.387695312 647.483398438 847.21484375 727 992 727 c 0
 1200.85742188 727 1342 585.302734375 1342 392 c 0
 1342 323.622070312 1310.8203125 245.415039062 1267.26757812 181.98046875 c 2
 1250.984375 158.26171875 l 1
 1303.01592379 119.238057158 1345.47482273 120.143423939 1498 120 c 1
EndSplineSet
EndChar

StartChar: uniFEC3
Encoding: 65219 65219 206
GlifName: uniF_E_C_3
Width: 1293
VWidth: 2920
GlyphClass: 2
Flags: HW
AnchorPoint: "Anchor-7" 481.602 -268.453 basechar 0
AnchorPoint: "Anchor-10" 292.36 1485.78 basechar 0
LayerCount: 2
Fore
SplineSet
471.1015625 122 m 2
 827.999023438 122 1047 195.146484375 1047 384 c 0
 1047 508.88671875 954.00390625 606 822 606 c 0
 648.630859375 606 476.190429688 444.884765625 297.76171875 167.217773438 c 2
 267.822265625 120.626953125 l 1
 323.203125 121.000976562 l 1
 471.1015625 122 l 2
407.231445312 487.018554688 m 2
 538.165039062 647.265625 674.10546875 727 819 727 c 0
 1024.38476562 727 1165 582.561523438 1165 392 c 0
 1165 137.1171875 955.009765625 0 476 0 c 2
 -19 0 l 5
 -19 120 l 5
 140 120 l 1
 156.403320312 120 l 1
 165.256835938 133.809570312 l 2
 189.935546875 172.309570312 215.963867188 210.346679688 240.364257812 248.98046875 c 2
 245 256.319335938 l 1
 245 265 l 1
 245 1326 l 1
 354 1326 l 1
 354 506 l 1
 354 421.869140625 l 1
 407.231445312 487.018554688 l 2
EndSplineSet
EndChar

StartChar: uniFEC4
Encoding: 65220 65220 207
GlifName: uniF_E_C_4
Width: 1332
VWidth: 2920
GlyphClass: 2
Flags: HW
AnchorPoint: "Anchor-10" 289.36 1483.78 basechar 0
AnchorPoint: "Anchor-7" 481.602 -268.453 basechar 0
LayerCount: 2
Fore
SplineSet
471.1015625 122 m 2
 827.999023438 122 1047 195.146484375 1047 384 c 0
 1047 508.88671875 954.00390625 606 822 606 c 0
 648.630859375 606 476.190429688 444.884765625 297.76171875 167.217773438 c 2
 267.822265625 120.626953125 l 1
 323.203125 121.000976562 l 1
 471.1015625 122 l 2
1321 120 m 1
 1351 120 l 1
 1351 0 l 1
 1321 0 l 1
 1149.30859375 0 1062.78125 37.2294921875 1001.82617188 86.357421875 c 2
 986.567382812 98.6552734375 l 1
 969.17578125 89.625 l 2
 872.13671875 39.2392578125 689.491210938 0 476 0 c 2
 -19 0 l 5
 -19 120 l 5
 142 120 l 1
 158.763671875 120 l 1
 167.549804688 134.27734375 l 2
 191.356445312 172.961914062 216.291992188 211.865234375 240.364257812 249.98046875 c 2
 245 257.319335938 l 1
 245 266 l 1
 245 1326 l 1
 354 1326 l 1
 354 506 l 1
 354 422.3515625 l 1
 407.162109375 486.93359375 l 2
 539.264648438 647.4140625 673.28515625 727 816 727 c 0
 1022.66992188 727 1165 583.295898438 1165 392 c 0
 1165 323.8671875 1132.94921875 245.603515625 1089.26757812 181.98046875 c 2
 1072.984375 158.26171875 l 1
 1124.88626461 119.335301543 1167.88125183 120.071712592 1321 120 c 1
EndSplineSet
EndChar

StartChar: uniFECA
Encoding: 65226 65226 213
GlifName: uniF_E_C_A_
Width: 1199
VWidth: 2920
GlyphClass: 2
Flags: HW
AnchorPoint: "Anchor-7" 610.833 -860.619 basechar 0
AnchorPoint: "Anchor-10" 574.833 1136.24 basechar 0
LayerCount: 2
Fore
SplineSet
1034.68164062 -602.08203125 m 1
 934.319335938 -643.021484375 820.936523438 -663 689 -663 c 0
 353.885742188 -663 128 -513.83984375 128 -228 c 0
 128 -30.5712890625 256.026367188 131.172851562 462.051757812 261.655273438 c 2
 503.606445312 287.973632812 l 1
 461.185546875 312.872070312 l 2
 278.08203125 420.346679688 198 518.578125 198 599 c 0
 198 716.323242188 406.799804688 786 616 786 c 0
 829.977539062 786 1024 729.956054688 1024 603 c 0
 1024 534.327148438 936.3359375 427.586914062 733.088867188 300.432617188 c 2
 693.877929688 275.90234375 l 1
 732.264648438 250.1015625 l 2
 857.823242188 165.709960938 981.611328125 120 1159 120 c 2
 1217 120 l 5
 1217 0 l 5
 1159 0 l 2
 974.024414062 0 813.8515625 67.224609375 619.211914062 203.571289062 c 2
 603.759765625 214.395507812 l 1
 587.310546875 205.157226562 l 2
 382.540039062 90.1630859375 235 -50.53125 235 -228 c 0
 235 -427.345703125 411.213867188 -550.975585938 690.889648438 -552 c 0
 796.306640625 -552.385742188 904.862304688 -531.176757812 1011.81445312 -491.012695312 c 1
 1034.68164062 -602.08203125 l 1
618.458007812 360.713867188 m 2
 792.098632812 456.215820312 909 521.1328125 909 588 c 0
 909 670.072265625 771.763671875 672 615 672 c 0
 455.573242188 672 321 663.779296875 321 577 c 0
 321 509.096679688 431.481445312 446.490234375 589.690429688 360.6328125 c 2
 604.096679688 352.814453125 l 1
 618.458007812 360.713867188 l 2
EndSplineSet
EndChar

StartChar: uniFECB
Encoding: 65227 65227 214
GlifName: uniF_E_C_B_
Width: 1057
VWidth: 2920
GlyphClass: 2
Flags: HW
AnchorPoint: "Anchor-10" 550.493 1157.05 basechar 0
AnchorPoint: "Anchor-7" 484.511 -267.021 basechar 0
LayerCount: 2
Fore
SplineSet
929 139.143554688 m 1
 621.448242188 45.2451171875 340.55859375 0 85 0 c 2
 -19 0 l 5
 -19 120 l 5
 277 120 l 1
 338.870117188 120 l 1
 300.5546875 168.578125 l 2
 245.3828125 238.528320312 201 304.249023438 201 416 c 0
 201 631.765625 347.671875 809 585 809 c 0
 711.791992188 809 810.724609375 770.400390625 892.018554688 695.103515625 c 1
 850.122070312 601.788085938 l 1
 773.842773438 656.5859375 697.239257812 686.0234375 617.182617188 687 c 0
 443.119140625 687 311 566.66796875 311 410 c 0
 311 364.155273438 334.20703125 235.46875 481.225585938 168.848632812 c 0
 492.450195312 163.377929688 512.193359375 153.87109375 538.043945312 159.836914062 c 2
 929 258.489257812 l 1
 929 139.143554688 l 1
EndSplineSet
EndChar

StartChar: uniFEDA
Encoding: 65242 65242 229
GlifName: uniF_E_D_A_
Width: 1931
VWidth: 2920
GlyphClass: 2
Flags: HW
AnchorPoint: "Anchor-10" 948.11 1360.05 basechar 0
AnchorPoint: "Anchor-7" 900.268 -256.468 basechar 0
LayerCount: 2
Fore
SplineSet
718 574.637695312 m 1
 768.642578125 569.6171875 810.37890625 567 849 567 c 0
 938.293945312 567 1095 569.912109375 1095 690 c 0
 1095 784.44921875 1013.70605469 814.48046875 945.559570312 824.651367188 c 0
 815.401367188 845.251953125 763 900.85546875 763 999 c 0
 763 1111.95019531 857.639648438 1183.31835938 1092 1207.2109375 c 1
 1092 1142.05761719 l 1
 943.66015625 1125.16992188 832 1088.93457031 832 998 c 0
 832 920.807617188 905.055664062 885.40625 998.451171875 871.346679688 c 0
 1115.09179688 853.122070312 1163 797.715820312 1163 694 c 0
 1163 566.844726562 1044.91015625 499 866 499 c 0
 822.748046875 499 771.318359375 502.834960938 718 510.008789062 c 1
 718 574.637695312 l 1
978 120 m 2
 1451.66601562 120 1584 222.071289062 1584 440 c 2
 1584 1326 l 1
 1693 1326 l 1
 1693 442 l 2
 1693 248.72265625 1720.84082031 120 1916 120 c 2
 1950 120 l 5
 1950 0 l 5
 1918 0 l 2
 1738.99023438 0 1684.94824219 50.00390625 1651.68847656 158.772460938 c 2
 1636.40039062 208.76953125 l 1
 1600.95019531 170.341796875 l 2
 1478.58691406 37.7041015625 1325.21289062 0 985 0 c 2
 840 0 l 2
 365.087890625 0 128 156.538085938 128 454 c 0
 128 528.747070312 143.16015625 602.15234375 168.837890625 669.712890625 c 1
 267.112304688 633.100585938 l 1
 250.8671875 581.138671875 243 531.252929688 243 478.931640625 c 0
 244.119140625 232.771484375 459.916992188 120 830 120 c 2
 978 120 l 2
EndSplineSet
EndChar

StartChar: uniFEDB
Encoding: 65243 65243 230
GlifName: uniF_E_D_B_
Width: 950
VWidth: 2920
GlyphClass: 2
Flags: HW
AnchorPoint: "Anchor-10" 327.533 1360.15 basechar 0
AnchorPoint: "Anchor-7" 310.991 -263.935 basechar 0
LayerCount: 2
Fore
SplineSet
195.6640625 955.063476562 m 2
 367.182617188 810.46875 498.7734375 691.69921875 578.00390625 606.599609375 c 0
 658.740234375 519.213867188 696 427.012695312 696 326 c 0
 696 109.346679688 555.068359375 0 166 0 c 2
 -19 0 l 5
 -19 120 l 5
 165 120 l 2
 439.0703125 120 581 185.913085938 581 343 c 0
 581 420.625 538.688476562 492.899414062 466.508789062 560.895507812 c 0
 363.943359375 656.420898438 272.71484375 736.66015625 191.478515625 800.633789062 c 0
 119.069335938 856.845703125 90 909.576171875 90 962 c 0
 90 1033.48828125 126.103515625 1083.16992188 209.551757812 1114.91699219 c 2
 859 1355.87109375 l 1
 859 1248.87011719 l 1
 204.567382812 1006.12695312 l 1
 156.319335938 988.231445312 l 1
 195.6640625 955.063476562 l 2
EndSplineSet
EndChar

StartChar: uniFEDC
Encoding: 65244 65244 231
GlifName: uniF_E_D_C_
Width: 1027
VWidth: 2920
GlyphClass: 2
Flags: HW
AnchorPoint: "Anchor-10" 327.533 1360.15 basechar 0
AnchorPoint: "Anchor-7" 310.991 -263.935 basechar 0
LayerCount: 2
Fore
SplineSet
643.909179688 165.446289062 m 2
 574.03125 58.8369140625 446.024414062 0 166 0 c 2
 -19 0 l 1
 -19 120 l 1
 165 120 l 2
 439.0703125 120 581 185.913085938 581 343 c 0
 581 420.625 538.688476562 492.899414062 466.508789062 560.895507812 c 0
 363.943359375 656.420898438 272.71484375 736.66015625 191.478515625 800.633789062 c 0
 119.069335938 856.845703125 90 909.576171875 90 962 c 0
 90 1033.48828125 126.103515625 1083.16992188 209.551757812 1114.91699219 c 2
 859 1355.87109375 l 1
 859 1248.87011719 l 1
 204.567382812 1006.12695312 l 1
 156.319335938 988.231445312 l 1
 195.6640625 955.063476562 l 2
 367.2109375 810.4453125 498.72265625 691.75390625 578.04296875 606.557617188 c 0
 628.416015625 552.453125 668.65234375 480.3359375 699.713867188 392.006835938 c 0
 760.704101562 219.37109375 866.64453125 121.674804688 1015 120.01171875 c 1
 1045 120.01171875 l 1
 1045 0 l 5
 1015 0.0087890625 l 1
 877.626953125 1.087890625 775.583984375 57.201171875 692.975585938 167.033203125 c 2
 667.313476562 201.151367188 l 1
 643.909179688 165.446289062 l 2
EndSplineSet
EndChar

StartChar: uniFEDE
Encoding: 65246 65246 233
GlifName: uniF_E_D_E_
Width: 1439
VWidth: 2920
GlyphClass: 2
Flags: HW
AnchorPoint: "Anchor-7" 662.902 -738.086 basechar 0
AnchorPoint: "Anchor-10" 654.908 975.66 basechar 0
LayerCount: 2
Fore
SplineSet
296.512695312 311.259765625 m 1
 258.135742188 207.099609375 239 115.385742188 239 6 c 0
 239 -264.514648438 392.232421875 -407 675 -407 c 0
 945.954101562 -407 1089 -250.326171875 1089 37.9541015625 c 2
 1090.95703125 1326 l 1
 1198.96972656 1326 l 1
 1198 363 l 2
 1198 211.15625 1258.81445312 120 1428 120 c 1
 1458 120 l 1
 1458 0 l 1
 1428 0.0029296875 l 2
 1296.35346932 0.591530370474 1244.74740956 54.2840594357 1198.88964844 117.609375 c 5
 1198.00292969 48.384765625 l 2
 1193.15136719 -330.025390625 1026.44921875 -520 674 -520 c 0
 302.2109375 -520 128 -351.05859375 128 5 c 0
 128 127.423828125 150.67578125 233.904296875 196.60546875 351.8671875 c 1
 296.512695312 311.259765625 l 1
EndSplineSet
EndChar

StartChar: uniFEDF
Encoding: 65247 65247 234
GlifName: uniF_E_D_F_
Width: 608
VWidth: 2920
GlyphClass: 2
Flags: HW
AnchorPoint: "Anchor-10" 365.751 1490.65 basechar 0
AnchorPoint: "Anchor-7" 259.812 -268.234 basechar 0
LayerCount: 2
Fore
SplineSet
-19 0 m 5
 -19 120 l 5
 61 120 l 2
 254.28125 120 321 213.515625 321 373 c 2
 321 1326 l 1
 430 1326 l 1
 430 374 l 2
 430 120.68359375 340.860351562 0 60 0 c 2
 -19 0 l 5
EndSplineSet
EndChar

StartChar: uniFEE0
Encoding: 65248 65248 235
GlifName: uniF_E_E_0
Width: 670
VWidth: 2920
GlyphClass: 2
Flags: HW
AnchorPoint: "Anchor-7" 259.812 -268.234 basechar 0
AnchorPoint: "Anchor-10" 364.751 1490.65 basechar 0
LayerCount: 2
Fore
SplineSet
343.447265625 130.239257812 m 6
 282.879882812 43.9765625 206.538085938 0 43 0 c 2
 -19 0 l 1
 -19 120 l 1
 45 120 l 2
 233.990234375 120 319.884765625 203.895507812 321 358.891601562 c 2
 321 1326 l 1
 430 1326 l 1
 430 359 l 2
 430 209.02734375 497.186523438 120 658 120 c 1
 688 120 l 1
 688 0 l 1
 658 0.0029296875 l 1
 521.04296875 0.5185546875 455.32421875 44.3984375 392.216796875 130.70703125 c 6
 367.505859375 164.502929688 l 5
 343.447265625 130.239257812 l 6
EndSplineSet
EndChar

StartChar: uniFEE2
Encoding: 65250 65250 237
GlifName: uniF_E_E_2
Width: 1306
VWidth: 2590
GlyphClass: 2
Flags: HW
AnchorPoint: "Anchor-10" 773.952 990.2 basechar 0
AnchorPoint: "Anchor-7" 724.983 -368.909 basechar 0
LayerCount: 2
Fore
SplineSet
140.299804688 -665 m 1
 134.26953125 -558.793945312 131 -469.012695312 131 -373 c 0
 131 -22.203125 183.028320312 226.900390625 400.767578125 269.559570312 c 2
 416.830078125 272.70703125 l 1
 422.876953125 287.916015625 l 2
 520.3515625 533.078125 644.197265625 641 790 641 c 0
 973.518554688 641 1067.98535156 517.28125 1105.64355469 333.81640625 c 0
 1133.34082031 205.590820312 1193.63476562 122.140625 1295 120.022460938 c 1
 1325 120.022460938 l 1
 1325 0 l 5
 1295 0.0146484375 l 1
 1220.34960938 0.8984375 1161.31835938 27.5390625 1118.90917969 90.7197265625 c 2
 1092.23828125 130.453125 l 1
 1068.09765625 89.1337890625 l 2
 1021.21191406 8.8876953125 964.30078125 -23 856 -23 c 0
 785.307617188 -23 711.609375 1.4326171875 623.709960938 54.55859375 c 0
 590.94921875 75.0341796875 555.674804688 93.7021484375 518.782226562 112.646484375 c 0
 486.502929688 129.342773438 455.697265625 138 428.85546875 138 c 0
 288.102539062 136.646484375 244 -55.7353515625 244 -345 c 0
 244 -463.41015625 248.21484375 -568.71875 255.506835938 -665 c 1
 140.299804688 -665 l 1
550.623046875 242.287109375 m 2
 672.034179688 148.193359375 770.749023438 95 852.182617188 95 c 0
 951.544921875 96.2119140625 1004 162.059570312 1004 265 c 0
 1004 398.03515625 926.342773438 516 790 516 c 0
 674.62890625 516 593.98046875 423.502929688 540.783203125 276.189453125 c 2
 533.369140625 255.659179688 l 1
 550.623046875 242.287109375 l 2
EndSplineSet
EndChar

StartChar: uniFEE3
Encoding: 65251 65251 238
GlifName: uniF_E_E_3
Width: 1038
VWidth: 2920
GlyphClass: 2
Flags: HW
AnchorPoint: "Anchor-10" 573.952 990.2 basechar 0
AnchorPoint: "Anchor-7" 504.594 -267.063 basechar 0
LayerCount: 2
Fore
SplineSet
355.380859375 256.291992188 m 2
 445.575195312 152.774414062 536.493164062 93 631 93 c 0
 739.767578125 93 803 155.470703125 803 262 c 0
 803 402.895507812 724.953125 515 591 515 c 0
 479.18359375 515 400.119140625 427.951171875 349.729492188 286.038085938 c 2
 343.861328125 269.513671875 l 1
 355.380859375 256.291992188 l 2
270.392578125 133.720703125 m 2
 192.1953125 44.080078125 108.671875 0 13 0 c 0
 12 0 12 0 12 0 c 2
 -18 0 l 1
 -18 120 l 5
 12 120.037109375 l 1
 153.947265625 123.029296875 224.75 261.750976562 273.3203125 368.607421875 c 0
 359.341796875 558.245117188 462.506835938 641 587 641 c 0
 781.029296875 641 910 476.766601562 910 277 c 0
 910 80.732421875 819.4296875 -22 645 -22 c 0
 524.787109375 -22 424.827148438 29.4609375 313.732421875 135.68359375 c 2
 291.03515625 157.384765625 l 1
 270.392578125 133.720703125 l 2
EndSplineSet
EndChar

StartChar: uniFEE4
Encoding: 65252 65252 239
GlifName: uniF_E_E_4
Width: 1102
VWidth: 2920
GlyphClass: 2
Flags: HW
AnchorPoint: "Anchor-10" 573.952 990.2 basechar 0
AnchorPoint: "Anchor-7" 524.594 -267.063 basechar 0
LayerCount: 2
Fore
SplineSet
355.270507812 256.420898438 m 2
 444.611328125 152.702148438 535.975585938 93 635 93 c 0
 742.306640625 93 806 153.9140625 806 258 c 0
 806 397.41796875 723.981445312 515 587 515 c 0
 476.588867188 515 399.9375 426.416015625 349.751953125 286.103515625 c 2
 343.870117188 269.655273438 l 1
 355.270507812 256.420898438 l 2
870.866210938 90.3798828125 m 2
 818.3203125 9.7490234375 755.955078125 -22 643 -22 c 0
 528.818359375 -22 420.46484375 29.927734375 314.116210938 135.309570312 c 2
 291.408203125 157.811523438 l 1
 270.392578125 133.720703125 l 2
 192.1953125 44.080078125 108.671875 0 13 0 c 0
 12 0 12 0 12 0 c 2
 -18 0 l 1
 -18 120 l 1
 12 120.037109375 l 1
 156.028320312 123.064453125 226.796875 263.927734375 273.381835938 368.743164062 c 0
 358.309570312 557.14453125 462.565429688 641 587 641 c 0
 770.037109375 641 869.086914062 507.944335938 905.62890625 333.890625 c 0
 932.0546875 206.841796875 991.513671875 123.27734375 1090 120.069335938 c 1
 1120 120.069335938 l 1
 1120 0 l 5
 1090 0.0283203125 l 1
 1019.62890625 1.138671875 963.4609375 27.326171875 920.909179688 90.7197265625 c 2
 895.629882812 128.379882812 l 1
 870.866210938 90.3798828125 l 2
EndSplineSet
EndChar

StartChar: uniFEEA
Encoding: 65258 65258 245
GlifName: uniF_E_E_A_
Width: 1038
VWidth: 2920
GlyphClass: 2
Flags: HW
AnchorPoint: "Anchor-10" 662.464 1192.36 basechar 0
AnchorPoint: "Anchor-7" 469.642 -266.09 basechar 0
LayerCount: 2
Fore
SplineSet
128 382 m 0
 128 557.001953125 273.299804688 700.091796875 613.857421875 805.337890625 c 2
 638.62890625 812.9921875 l 1
 634.643554688 838.611328125 l 1
 632.028320312 855.422851562 l 1
 731.70703125 876.111328125 l 1
 809.275390625 318.946289062 l 2
 825.865234375 197.287109375 903.000976562 120 1027 120 c 1
 1057 120 l 1
 1057 0 l 1
 1023 0 l 2
 848.150390625 0 761.333984375 74.705078125 730.276367188 213.548828125 c 2
 719.340820312 262.436523438 l 1
 681.40625 229.717773438 l 2
 605.934570312 164.623046875 524.49609375 132 431 132 c 0
 256.409179688 132 128 209.547851562 128 382 c 0
620.623046875 701.1484375 m 2
 387.234375 615.111328125 242 524.749023438 242 394 c 0
 242 292.256835938 317.86328125 240 425 240 c 0
 543.421875 240 691 312.555664062 691 452 c 0
 691 472.11328125 689.938476562 491.6484375 686.649414062 513.57421875 c 2
 660.629882812 677.697265625 l 1
 654.908203125 713.787109375 l 1
 620.623046875 701.1484375 l 2
EndSplineSet
EndChar

StartChar: uniFEEB
Encoding: 65259 65259 246
GlifName: uniF_E_E_B_
Width: 1369
VWidth: 2920
GlyphClass: 2
Flags: HW
AnchorPoint: "Anchor-10" 609.134 1192.79 basechar 0
AnchorPoint: "Anchor-7" 510.852 -269.953 basechar 0
LayerCount: 2
Fore
SplineSet
808 463 m 0
 808 348.939453125 764.102539062 239.380859375 686.6953125 179.768554688 c 2
 629.293945312 135.5625 l 1
 701.143554688 126.249023438 l 2
 756.23046875 119.108398438 811.37890625 115 862 115 c 0
 1023.99609375 115 1126 190.127929688 1126 330 c 0
 1126 436.767578125 978 578 807.561523438 687.010742188 c 0
 711.487576952 748.45867591 618.422349058 793.998774941 553.586914062 831.771484375 c 1
 597.470703125 911.455078125 l 1
 1040.42578125 691.936523438 1241 491.002929688 1241 333 c 0
 1241 124.345703125 1102.19824219 10 879 10 c 0
 752.135742188 10 582.03515625 45.63671875 494.673828125 75.3974609375 c 2
 484.546875 78.84765625 l 1
 474.522460938 75.1103515625 l 2
 367.951171875 35.388671875 207.98828125 0 75 0 c 2
 -19 0 l 1
 -19 120 l 1
 63 120 l 2
 192.054160067 120 264.845285958 126.877967746 348.700195312 141.609375 c 5
 299.2578125 183.002929688 l 2
 220.216796875 249.176757812 183 334.256835938 183 446 c 0
 183 628.802734375 326.487304688 757 495 757 c 0
 676.515423614 757 808 624.491491358 808 463 c 0
514.099609375 182.12890625 m 2
 638.181640625 231.541992188 703.856445312 341.053710938 705 442.831054688 c 0
 705 567.586914062 623.28125 652 504 652 c 0
 380.775390625 652 293 564.473632812 293 448 c 0
 293 341.861328125 362.5078125 231.053710938 492.388671875 181.939453125 c 2
 503.280273438 177.8203125 l 1
 514.099609375 182.12890625 l 2
EndSplineSet
EndChar

StartChar: uniFEEC
Encoding: 65260 65260 247
GlifName: uniF_E_E_C_
Width: 1002
VWidth: 2920
GlyphClass: 2
Flags: HW
AnchorPoint: "Anchor-7" 597.16 -739.603 basechar 0
AnchorPoint: "Anchor-10" 551.648 1105.04 basechar 0
LayerCount: 2
Fore
SplineSet
610.209960938 -533.743164062 m 5
 402.799804688 -428.578125 286.048828125 -262.748046875 246.594726562 -25.0869140625 c 6
 242.430664062 0 l 5
 217 0 l 5
 -19 0 l 1
 -19 120 l 1
 204 120 l 5
 232.541992188 120 l 5
 233.962890625 148.505859375 l 6
 251.189453125 494.061523438 322.4765625 736 548 736 c 4
 689.671875 736 780 631.086914062 780 457 c 4
 780 231.8984375 582.309570312 5.3759765625 375.075195312 -1.0146484375 c 6
 340.447265625 -2.08203125 l 5
 346.454101562 -36.2021484375 l 6
 372.723632812 -185.409179688 446.162109375 -296.958984375 568.711914062 -376.193359375 c 6
 615 -406.12109375 l 5
 615 -351 l 6
 615 -45.615234375 738.354492188 120 988 120 c 6
 1021 120 l 5
 1021 0 l 5
 986 0 l 6
 796.73828125 0 703 -132.083984375 703 -360 c 4
 703 -384.48828125 703.8203125 -413.549804688 705.885742188 -440.439453125 c 5
 610.209960938 -533.743164062 l 5
367.9609375 119.015625 m 6
 541.547851562 124.579101562 681 273.373046875 681 457 c 4
 681 553.969726562 627.233398438 622 546 622 c 4
 397.62109375 622 350.701171875 438.416992188 337.034179688 150.421875 c 6
 335.494140625 117.974609375 l 5
 367.9609375 119.015625 l 6
EndSplineSet
EndChar

StartChar: uniFEEE
Encoding: 65262 65262 249
GlifName: uniF_E_E_E_
Width: 876
VWidth: 2112
GlyphClass: 2
Flags: HW
AnchorPoint: "Anchor-10" 430.256 1000.2 basechar 0
AnchorPoint: "Anchor-7" 415.969 -669.998 basechar 0
LayerCount: 2
Fore
SplineSet
432 660 m 0
 615.728515625 660 725.184570312 506.228515625 749.06640625 147.009765625 c 2
 750.928710938 119 l 1
 779 119 l 1
 894 119 l 1
 894 0.2373046875 l 1
 767.236328125 0.9990234375 l 1
 742.10546875 1.197265625 l 1
 737.506835938 -23.5107421875 l 2
 690.106445312 -278.168945312 511.7578125 -454.43359375 186.794921875 -523.602539062 c 1
 148.892578125 -426.3203125 l 1
 423.747070312 -366.041992188 588.283203125 -226.967773438 639.939453125 -37.9072265625 c 2
 650.295898438 0 l 1
 611 0 l 1
 462 0 l 2
 228.255859375 0 128 86.9033203125 128 266 c 0
 128 483.467773438 260.140625 660 432 660 c 0
645.938476562 151.918945312 m 2
 631.029296875 384.5 565.53515625 535 418 535 c 0
 301.158203125 535 233 402.161132812 233 281 c 0
 233 171.303710938 321.346679688 120 452 120 c 2
 616 120 l 1
 647.984375 120 l 1
 645.938476562 151.918945312 l 2
EndSplineSet
EndChar

StartChar: uniFEFB
Encoding: 65275 65275 262
GlifName: uniF_E_F_B_
Width: 1212
VWidth: 2920
GlyphClass: 3
Flags: HW
AnchorPoint: "Anchor-9" 221.642 1436.64 baselig 1
AnchorPoint: "Anchor-6" 288.021 -274.333 baselig 1
AnchorPoint: "Anchor-6" 925.078 -270.55 baselig 0
AnchorPoint: "Anchor-9" 975.01 1487.81 baselig 0
LayerCount: 2
Fore
SplineSet
205 132.18359375 m 1
 273.301757812 124.583984375 335.01953125 121 399 121 c 0
 434.576171875 121 472.06640625 122.0078125 504.87109375 124.05859375 c 2
 542.21875 126.392578125 l 1
 531.817382812 162.338867188 l 2
 464.740234375 394.150390625 344.94921875 746.848632812 148.45703125 1200.75976562 c 1
 244.026367188 1252.71386719 l 1
 438.466796875 781.649414062 566.958007812 427.975585938 633.012695312 180.270507812 c 2
 641.18359375 149.631835938 l 1
 671.322265625 159.485351562 l 2
 843.283203125 215.703125 925 369.848632812 925 608 c 2
 925 1326 l 1
 1034 1326 l 1
 1034 607 l 2
 1034 199.349609375 828.12109375 3 396 3 c 0
 319.298828125 3 255.771484375 7.412109375 205 14.6142578125 c 1
 205 132.18359375 l 1
EndSplineSet
PairPos2: "'kern' Horizontal Kerning lookup 15-6" uni0639 dx=-60 dy=0 dh=-60 dv=0 dx=0 dy=0 dh=0 dv=0
PairPos2: "'kern' Horizontal Kerning lookup 15-6" uni063A dx=-60 dy=0 dh=-60 dv=0 dx=0 dy=0 dh=0 dv=0
LCarets2: 1 0
Ligature2: "'rlig' Required Ligatures in Arabic lookup 16 subtable" uniFEDF uniFE8E
EndChar

StartChar: uniFEFC
Encoding: 65276 65276 263
GlifName: uniF_E_F_C_
Width: 1273
VWidth: 2920
GlyphClass: 3
Flags: HW
AnchorPoint: "Anchor-9" 974.01 1487.81 baselig 0
AnchorPoint: "Anchor-9" 221.642 1438.64 baselig 1
AnchorPoint: "Anchor-6" 925.078 -270.55 baselig 0
AnchorPoint: "Anchor-6" 288.021 -274.333 baselig 1
LayerCount: 2
Fore
SplineSet
244.026367188 1252.71386719 m 1
 438.466796875 781.649414062 566.958007812 427.975585938 633.012695312 180.270507812 c 2
 641.18359375 149.631835938 l 1
 671.322265625 159.485351562 l 2
 843.283203125 215.703125 925 369.848632812 925 608 c 2
 925 1326 l 1
 1034 1326 l 1
 1034 517 l 2
 1034 275.841796875 1086.36425781 120 1257 120 c 2
 1291 120 l 5
 1291 0 l 5
 1254 0 l 2
 1101.5234375 0 1026.93457031 65.078125 984.765625 207.516601562 c 2
 967.682617188 265.220703125 l 1
 931.884765625 216.845703125 l 2
 828.10546875 76.603515625 658.643554688 3 396 3 c 0
 319.298828125 3 255.771484375 7.412109375 205 14.6142578125 c 1
 205 132.106445312 l 1
 270.8984375 124.663085938 334.47265625 121 398 121 c 0
 433.57421875 121 471.072265625 122.009765625 504.814453125 124.0546875 c 2
 542.479492188 126.337890625 l 1
 531.765625 162.518554688 l 2
 463.719726562 392.295898438 344.049804688 744.6171875 148.376953125 1200.71679688 c 1
 244.026367188 1252.71386719 l 1
EndSplineSet
PairPos2: "'kern' Horizontal Kerning lookup 15-6" uni0639 dx=-60 dy=0 dh=-60 dv=0 dx=0 dy=0 dh=0 dv=0
PairPos2: "'kern' Horizontal Kerning lookup 15-6" uni063A dx=-60 dy=0 dh=-60 dv=0 dx=0 dy=0 dh=0 dv=0
LCarets2: 1 0
Ligature2: "'rlig' Required Ligatures in Arabic lookup 16 subtable" uniFEE0 uniFE8E
EndChar

StartChar: arabic_dot
Encoding: 65536 -1 264
GlifName: arabic_dot
Width: 189
VWidth: 2682
GlyphClass: 2
Flags: HW
LayerCount: 2
Fore
SplineSet
-21.6446030681 97.8496672476 m 1
 91.2001953125 210.694465629 l 1
 204.994328559 96.9003323817 l 1
 92.150274509 -15.9444652573 l 1
 -21.6446030681 97.8496672476 l 1
EndSplineSet
EndChar

StartChar: arabic_2dots
Encoding: 65537 -1 265
GlifName: arabic_2dots
Width: 504
VWidth: 2682
GlyphClass: 2
Flags: HW
LayerCount: 2
Fore
SplineSet
303.41197729 97.8850653556 m 1
 411.057774084 205.530862149 l 1
 519.472883553 97.884654165 l 1
 411.058183832 -11.2989441364 l 1
 303.41197729 97.8850653556 l 1
-28.5880227098 97.8850653556 m 1
 79.0577740837 205.530862149 l 1
 187.472883553 97.884654165 l 1
 79.0581838316 -11.2989441364 l 1
 -28.5880227098 97.8850653556 l 1
EndSplineSet
EndChar

StartChar: arabic_3dots
Encoding: 65538 -1 266
GlifName: arabic_3dots
Width: 504
VWidth: 2675
GlyphClass: 2
Flags: HW
LayerCount: 2
Fore
SplineSet
143.465656198 324.938744263 m 1
 243.061255737 424.534343802 l 1
 343.411600739 324.938512673 l 1
 243.061487327 224.588399261 l 1
 143.465656198 324.938744263 l 1
315.465656198 62.938744263 m 1
 415.061255737 162.534343802 l 1
 515.411600739 62.9385126731 l 1
 415.061487327 -37.4116007385 l 1
 315.465656198 62.938744263 l 1
-24.5343438024 62.938744263 m 1
 75.061255737 162.534343802 l 1
 175.411600739 62.9385126731 l 1
 75.0614873269 -37.4116007385 l 1
 -24.5343438024 62.938744263 l 1
EndSplineSet
EndChar

StartChar: arabic_3dots_a
Encoding: 65539 -1 267
GlifName: arabic_3dots_a
Width: 504
VWidth: 2689
GlyphClass: 2
Flags: HW
LayerCount: 2
Fore
SplineSet
144.465656198 -133.938744263 m 1
 244.061487327 -33.5883992615 l 1
 344.411600739 -133.938512673 l 1
 244.061255737 -233.534343802 l 1
 144.465656198 -133.938744263 l 1
316.465656198 128.061255737 m 1
 416.061487327 228.411600739 l 1
 516.411600739 128.061487327 l 1
 416.061255737 28.4656561976 l 1
 316.465656198 128.061255737 l 1
-23.5343438024 128.061255737 m 1
 76.0614873269 228.411600739 l 1
 176.411600739 128.061487327 l 1
 76.061255737 28.4656561976 l 1
 -23.5343438024 128.061255737 l 1
EndSplineSet
EndChar

StartChar: uni066E.fina
Encoding: 65540 -1 268
GlifName: uni066E_.fina
Width: 1858
VWidth: 2920
GlyphClass: 2
Flags: HW
AnchorPoint: "Anchor-10" 892.51 1395.59 basechar 0
AnchorPoint: "Anchor-7" 795.357 -289.261 basechar 0
LayerCount: 2
Fore
SplineSet
965 0 m 2
 840 0 l 2
 365.087890625 0 128 156.538085938 128 454 c 0
 128 528.747070312 143.16015625 602.15234375 168.837890625 669.712890625 c 1
 267.112304688 633.100585938 l 1
 250.8671875 581.138671875 243 531.252929688 243 478.931640625 c 0
 244.119140625 232.771484375 459.916992188 120 830 120 c 2
 960 120 l 2
 1217.94726562 120 1398.90917969 158.368164062 1483.08984375 259.845703125 c 0
 1511.08203125 293.58984375 1525 340.740234375 1525 402 c 0
 1525 446.080078125 1522.16796875 492.119140625 1519.68554688 531.705078125 c 1
 1621.11132812 544.3046875 l 1
 1635.06640625 328.004882812 l 2
 1643.72460938 198.127929688 1713.15820312 122.724609375 1846 120.059570312 c 1
 1876 120.059570312 l 1
 1876 0 l 5
 1846 0.0517578125 l 1
 1716.97851562 1.9736328125 1637.23535156 54.42578125 1582.74121094 161.59765625 c 2
 1563.49609375 199.447265625 l 1
 1534.25 168.662109375 l 2
 1429.4453125 58.341796875 1231.71875 0 965 0 c 2
EndSplineSet
EndChar

StartChar: uni06A1.fina
Encoding: 65543 -1 269
GlifName: uni06A_1.fina
Width: 1962
VWidth: 2920
GlyphClass: 2
Flags: HW
AnchorPoint: "Anchor-10" 713.816 1541.03 basechar 0
AnchorPoint: "Anchor-7" 590.121 -341.592 basechar 0
LayerCount: 2
Fore
SplineSet
1501 681 m 0
 1413.0859375 681 1299 544.328125 1299 460 c 0
 1299 380.5546875 1416.79785156 210 1506 210 c 0
 1600.78027344 210 1715 385.810546875 1715 468 c 0
 1715 542.190429688 1608.02636719 681 1501 681 c 0
960 120 m 2
 1218.91210938 120 1277.09277344 122.313476562 1326.43457031 134.935546875 c 2
 1377.44238281 147.984375 l 1
 1340.21289062 185.212890625 l 2
 1238.71582031 286.7109375 1191 362.255859375 1191 466 c 0
 1191 588.991210938 1344.02832031 796 1503 796 c 0
 1674.45996094 796 1824 607.387695312 1824 481 c 0
 1824 365.879882812 1775.48144531 295.837890625 1672.01660156 184.413085938 c 2
 1640.31347656 150.272460938 l 1
 1684.51269531 135.5390625 l 2
 1724.19335938 122.3125 1769.99707031 120 1888 120 c 2
 1980 120 l 5
 1980 0 l 5
 1890 0 l 2
 1719.22558594 0 1613.21386719 35.2529296875 1520.76269531 103.176757812 c 2
 1503.72363281 115.6953125 l 1
 1486.20410156 103.857421875 l 2
 1383.91015625 34.740234375 1210.82421875 0 965 0 c 2
 840 0 l 2
 365.067382812 0 128 156.11328125 128 454 c 0
 128 529.00390625 142.884765625 602.756835938 168.744140625 670.146484375 c 1
 267.47265625 633.044921875 l 1
 250.883789062 580.497070312 243 531.161132812 243 478.921875 c 0
 244.127929688 233.030273438 459.900390625 120 830 120 c 2
 960 120 l 2
EndSplineSet
EndChar

StartChar: uni06A1.init
Encoding: 65544 -1 270
GlifName: uni06A_1.init
Width: 918
VWidth: 2920
GlyphClass: 2
Flags: HW
AnchorPoint: "Anchor-10" 447.443 1574.02 basechar 0
AnchorPoint: "Anchor-7" 367.886 -277.023 basechar 0
LayerCount: 2
Fore
SplineSet
658.209960938 389.68359375 m 2
 599.186523438 371.595703125 535.22265625 362 466 362 c 0
 259.690429688 362 170.79296875 439.772460938 169 601.166992188 c 0
 169 814.20703125 282.90234375 982 466 982 c 0
 687.271484375 982 790 728.768554688 790 432 c 0
 790 67.724609375 656.065429688 0 265 0 c 2
 -19 0 l 5
 -19 120 l 5
 276 120 l 2
 522.954101562 120 694.670898438 159.360351562 696.998046875 360.653320312 c 2
 697.47265625 401.715820312 l 1
 658.209960938 389.68359375 l 2
680.791015625 532.53125 m 2
 665.391601562 662.466796875 619.801757812 866 459 866 c 0
 350.987304688 866 270 755.176757812 270 628 c 0
 270 520.556640625 355.266601562 472 479 472 c 0
 539.512695312 472 600.333984375 482.583007812 659.57421875 500.250976562 c 2
 683.762695312 507.465820312 l 1
 680.791015625 532.53125 l 2
EndSplineSet
EndChar

StartChar: uni06A1.medi
Encoding: 65545 -1 271
GlifName: uni06A_1.medi
Width: 972
VWidth: 2920
GlyphClass: 2
Flags: HW
AnchorPoint: "Anchor-10" 532.544 1356.06 basechar 0
AnchorPoint: "Anchor-7" 507.517 -277.023 basechar 0
LayerCount: 2
Fore
SplineSet
511 681 m 0
 423.0859375 681 309 544.328125 309 460 c 0
 309 380.5546875 426.797851562 210 516 210 c 0
 610.780273438 210 725 385.810546875 725 468 c 0
 725 542.333984375 617.001953125 681 511 681 c 0
693.465820312 135.91015625 m 2
 734.5859375 120.490234375 792.790039062 120 898 120 c 2
 990 120 l 5
 990 0 l 5
 900 0 l 2
 742.466796875 0 622.505859375 35.7734375 530.762695312 103.176757812 c 2
 512.967773438 116.25 l 1
 495.1953125 103.145507812 l 2
 402.883789062 35.0771484375 277.90625 0 114 0 c 2
 -19 0 l 1
 -19 120 l 1
 114 120 l 2
 241.245117188 120 303.607421875 120.014648438 340.981445312 137.954101562 c 2
 379.151367188 156.275390625 l 1
 349.212890625 186.212890625 l 2
 247.736328125 287.690429688 201 362.123046875 201 466 c 0
 201 589.114257812 353.111328125 796 512 796 c 0
 683.541992188 796 834 607.267578125 834 481 c 0
 834 375.756835938 784.244140625 285.6953125 682.889648438 185.315429688 c 2
 649.610351562 152.356445312 l 1
 693.465820312 135.91015625 l 2
EndSplineSet
EndChar

StartChar: uni066F.fina
Encoding: 65546 -1 272
GlifName: uni066F_.fina
Width: 1450
VWidth: 2920
GlyphClass: 2
Flags: HW
AnchorPoint: "Anchor-10" 758.297 969.41 basechar 0
AnchorPoint: "Anchor-7" 713.744 -728.409 basechar 0
LayerCount: 2
Fore
SplineSet
304.858398438 375.119140625 m 1
 262.118164062 254.66796875 240 142.059570312 240 31 c 0
 240 -257.568359375 407.51171875 -407 728 -407 c 0
 1049.453125 -407 1180.51171875 -278.116210938 1203.86621094 -31.83203125 c 2
 1206.97949219 1 l 1
 1174 1 l 1
 1023 1 l 2
 789.255859375 1 689 87.9033203125 689 267 c 0
 689 485.524414062 820.083984375 661 993 661 c 0
 1169.42578125 661 1279.21289062 507.234375 1310.11035156 147.43359375 c 2
 1312.46582031 120 l 1
 1340 120 l 1
 1468 120 l 5
 1468 0.2314453125 l 5
 1338.23046875 0.9990234375 l 1
 1311.21484375 1.20703125 l 1
 1308.18847656 -25.6396484375 l 2
 1270.609375 -359.03515625 1117.65625 -520 721 -520 c 0
 314.328125 -520 128 -342.234375 128 26 c 0
 128 152.734375 153.965820312 284.143554688 204.693359375 415.83203125 c 1
 304.858398438 375.119140625 l 1
1205.93847656 152.918945312 m 2
 1191.04101562 385.321289062 1126.63769531 536 979 536 c 0
 862.158203125 536 794 403.161132812 794 282 c 0
 794 172.303710938 882.346679688 121 1013 121 c 2
 1176 121 l 1
 1207.984375 121 l 1
 1205.93847656 152.918945312 l 2
EndSplineSet
EndChar

StartChar: arabic_gaf_bar
Encoding: 65550 -1 273
GlifName: arabic_gaf_bar
Width: 751
VWidth: 2739
GlyphClass: 2
Flags: HW
LayerCount: 2
Fore
SplineSet
720 1811.79589844 m 1
 23 1552.5 l 1
 23 1636.20410156 l 1
 720 1895.5 l 1
 720 1811.79589844 l 1
EndSplineSet
EndChar

StartChar: guillemotleft
Encoding: 171 171 283
GlifName: guillemotleft
Width: 1079
VWidth: 2316
Flags: HW
LayerCount: 2
Fore
SplineSet
793.004882812 1 m 1
 594.890625 297.6796875 565.924804688 425.094726562 565.000976562 452.396484375 c 0
 565.290039062 484.354492188 594.397460938 593.467773438 791.524414062 844 c 1
 892.6171875 844 l 1
 719.092773438 617.385742188 675 510.762695312 675 451 c 0
 675 399.26953125 720.412109375 270.671875 896.228515625 1 c 1
 793.004882812 1 l 1
383.004882812 1 m 1
 184.890625 297.6796875 155.924804688 425.094726562 155.000976562 452.396484375 c 0
 155.290039062 484.354492188 184.397460938 593.467773438 381.524414062 844 c 1
 482.6171875 844 l 1
 309.092773438 617.385742188 265 510.762695312 265 451 c 0
 265 399.26953125 310.412109375 270.671875 486.228515625 1 c 1
 383.004882812 1 l 1
EndSplineSet
EndChar

StartChar: guillemotright
Encoding: 187 187 284
GlifName: guillemotright
Width: 1079
VWidth: 2316
Flags: HW
LayerCount: 2
Fore
SplineSet
285.995117188 1 m 1
 182.771484375 1 l 1
 359.891601562 272.670898438 404 398.771484375 404 451 c 0
 404 510.342773438 358.509765625 619.209960938 186.3828125 844 c 1
 287.475585938 844 l 1
 486.493164062 591.065429688 513.7109375 484.25390625 513.999023438 452.396484375 c 0
 513.076171875 425.135742188 482.32421875 295.006835938 285.995117188 1 c 1
695.995117188 1 m 1
 592.771484375 1 l 1
 769.891601562 272.670898438 814 398.771484375 814 451 c 0
 814 510.342773438 768.509765625 619.209960938 596.3828125 844 c 1
 697.475585938 844 l 1
 896.493164062 591.065429688 923.7109375 484.25390625 923.999023438 452.396484375 c 0
 923.076171875 425.135742188 892.32421875 295.006835938 695.995117188 1 c 1
EndSplineSet
EndChar

StartChar: NameMe.302
Encoding: 65562 -1 293
GlifName: N_ameM_e.302
Width: 525
VWidth: 2920
Flags: HW
LayerCount: 2
Fore
SplineSet
22 0 m 2
 -19 0 l 1
 -19 120 l 1
 24 120 l 2
 203.180664062 120 218 234.216796875 218 399 c 2
 218 1009 l 1
 327 1009 l 1
 327 399 l 2
 327 237.392578125 338.374023438 120 502 120 c 2
 544 120 l 1
 544 0 l 1
 505 0 l 2
 359.868576316 0 304.578293644 55.6690827942 270.44140625 158.41796875 c 5
 226.794836025 52.2438389673 177.443899465 0 22 0 c 2
EndSplineSet
EndChar

StartChar: NameMe.303
Encoding: 65563 -1 294
GlifName: N_ameM_e.303
Width: 487
VWidth: 2920
Flags: HW
LayerCount: 2
Fore
SplineSet
11 0 m 1
 -19 0 l 5
 -19 120 l 1
 11 120 l 1
 166.390625 120 200 230.158203125 200 373 c 2
 200 1162 l 1
 309 1162 l 1
 309 375 l 2
 309 123.657226562 238.9609375 0.7470703125 11 0 c 1
EndSplineSet
EndChar

StartChar: NameMe.65564
Encoding: 65564 -1 297
GlifName: N_ameM_e.65564
Width: 527
VWidth: 2920
Flags: HW
AnchorPoint: "Anchor-10" 232.697 1286.11 basechar 0
AnchorPoint: "Anchor-7" 292.078 -271.903 basechar 0
LayerCount: 2
Fore
SplineSet
516 0.0244140625 m 1
 290.072265625 2.0048828125 178 100.43359375 178 374 c 2
 178 1127 l 1
 287 1127 l 1
 287 374 l 2
 287 194.326171875 373.919921875 122.037109375 516 120.03515625 c 1
 546 120.03515625 l 1
 546 0.0244140625 l 5
 516 0.0244140625 l 1
EndSplineSet
EndChar

StartChar: NameMe.65565
Encoding: 65565 -1 298
GlifName: N_ameM_e.65565
Width: 716
VWidth: 2957
Flags: HW
LayerCount: 2
Fore
SplineSet
127.546794745 -294.87545041 m 1
 164.627594973 -301.903112995 200.472635214 -305 233 -305 c 0
 340.348703474 -305 416.712528051 -287.439202565 461.416286768 -251.676195592 c 0
 494.347974941 -225.11838255 513 -195.069217034 513 -162 c 0
 513 -137.092623075 491.562441111 -124.130502441 463.449775189 -123.005995804 c 2
 363.3796252 -121.004804613 l 2
 291.414419411 -119.182900669 259 -86.0850553537 259 -13 c 0
 259 141.765090267 411.531624844 226.016523853 603.901470283 232.650958639 c 1
 596.977471315 132.6376402 l 1
 447.178335523 127.581407031 364.193411637 85.9143736451 353.105175887 -7.22680665322 c 2
 351.180644215 -23.3928726963 l 1
 367.449911559 -23.98991003 l 1
 476.558307154 -27.99388785 l 2
 560.600993672 -29.8615031059 605 -69.1645643611 605 -151 c 0
 605 -200.124802708 582.30302774 -249.677672829 536.907155049 -299.902893679 c 0
 474.993870821 -367.444658291 372.868346664 -403 226 -403 c 0
 190.442378415 -403 151.596603872 -399.790024654 113.006571531 -394.361188192 c 1
 127.546794745 -294.87545041 l 1
EndSplineSet
EndChar

StartChar: uni060D
Encoding: 1549 1549 299
Width: 828
VWidth: 4006
Flags: HW
LayerCount: 2
Fore
SplineSet
630.03125 1389.95019531 m 1
 715.53125 1364.24023438 l 1
 178.96875 -203.950195312 l 1
 93.46875 -178.240234375 l 1
 630.03125 1389.95019531 l 1
EndSplineSet
EndChar

StartChar: NameMe.65541
Encoding: 65541 -1 300
Width: 592
VWidth: 2920
Flags: HW
AnchorPoint: "Anchor-10" 261.384 1321 basechar 0
AnchorPoint: "Anchor-7" 253.422 -255.625 basechar 0
LayerCount: 2
Fore
SplineSet
425.033203125 671.834960938 m 1
 450.416992188 576.455078125 464 471.32421875 464 386 c 0
 464 131.821289062 344.991210938 0 99 0 c 2
 -19 0 l 5
 -19 120 l 5
 99 120 l 2
 267.739257812 120 353 203.142578125 353 383 c 0
 353 456.395507812 341.24609375 555.987304688 321.807617188 646.028320312 c 1
 425.033203125 671.834960938 l 1
EndSplineSet
EndChar

StartChar: NameMe.65542
Encoding: 65542 -1 301
Width: 667
VWidth: 2920
Flags: HW
AnchorPoint: "Anchor-10" 265.665 1265.09 basechar 0
AnchorPoint: "Anchor-7" 300.537 -209.742 basechar 0
LayerCount: 2
Fore
SplineSet
656 0.046875 m 1
 532.545898438 1.8642578125 463.041992188 44.96875 418.369140625 127.306640625 c 2
 395.634765625 169.208984375 l 1
 367.693359375 130.583984375 l 2
 305.17578125 44.1630859375 220.978515625 0 96 0 c 2
 -19 0 l 1
 -19 120 l 1
 91 120 l 2
 265.678710938 120 333 206.817382812 333 367 c 0
 333 420.733398438 329.252929688 480.053710938 326.424804688 531.610351562 c 1
 431.123046875 544.377929688 l 1
 445.065429688 330.020507812 l 2
 453.697265625 199.466796875 526.10546875 123.559570312 656 120.104492188 c 1
 686 120.104492188 l 1
 686 0.046875 l 1
 656 0.046875 l 1
EndSplineSet
EndChar

StartChar: uniFBFD.compact
Encoding: 65575 -1 321
Width: 1407
VWidth: 2703
Flags: HW
AnchorPoint: "Anchor-7" 718.902 -728.086 basechar 0
AnchorPoint: "Anchor-10" 681.6 623.22 basechar 0
LayerCount: 2
Fore
SplineSet
286.419921875 317.9609375 m 1
 255.26953125 222.74609375 240 128.154296875 240 30 c 0
 240 -256.403320312 408.090820312 -407 719 -407 c 0
 955.249023438 -407 1234 -306.813476562 1234 -137 c 0
 1234 -54.0458984375 1154.75878906 0 1040 0 c 2
 917 0 l 2
 896.856445312 0 888.040039062 8.9580078125 881.211914062 38.8310546875 c 2
 865.150390625 106 l 6
 862.845711672 115.638117777 864 120 874 120 c 6
 1425 120 l 1
 1425 0 l 1
 1338 0 l 1
 1289.85253906 0 l 1
 1309.85612365 -30.7464741132 1336 -80.6952486915 1336 -144 c 0
 1336 -350.266601562 1102.32714844 -519 720 -519 c 0
 316.53125 -519 129 -340.383789062 129 31 c 0
 129 125.783203125 149.397460938 261.248046875 186.380859375 358.885742188 c 1
 286.419921875 317.9609375 l 1
EndSplineSet
EndChar

StartChar: uniFECC.compact
Encoding: 65579 -1 324
Width: 1071
VWidth: 2920
Flags: HW
AnchorPoint: "Anchor-7" 574.511 -267.021 basechar 0
AnchorPoint: "Anchor-10" 598.107 1070.89 basechar 0
LayerCount: 2
Fore
SplineSet
727.935546875 174.056640625 m 2
 797.959960938 133.397460938 890.807617188 120 1045 120 c 2
 1089 120 l 1
 1089 0 l 1
 1045 0 l 2
 847.09765625 0 726.5625 47.74609375 623.907226562 117.782226562 c 2
 606.829101562 129.43359375 l 1
 589.861328125 117.622070312 l 2
 493.896484375 50.8232421875 355.399414062 0 87 0 c 2
 -19 0 l 5
 -19 120 l 5
 90 120 l 2
 292.001953125 120 411.965820312 129.713867188 476.392578125 175.556640625 c 2
 513.978515625 202.299804688 l 1
 474.290039062 225.810546875 l 2
 289.98046875 334.995117188 197 428.895507812 197 529 c 0
 197 651.088867188 393.989257812 716 607 716 c 0
 805.922851562 716 1010 650.833984375 1010 529 c 0
 1010 453.990234375 913.759765625 338.23828125 727.484375 225.67578125 c 2
 684.141601562 199.485351562 l 1
 727.935546875 174.056640625 l 2
618.46875 273.719726562 m 2
 701.201171875 319.26953125 892 418.336914062 892 506 c 0
 892 591.380859375 760.247070312 602 604 602 c 0
 449.194335938 602 315 593.452148438 315 506 c 0
 315 419.1875 489.365234375 323.776367188 590.583984375 273.166992188 c 2
 604.670898438 266.123046875 l 1
 618.46875 273.719726562 l 2
EndSplineSet
EndChar

